<?xml version="1.0" encoding="utf-8"?>
<!-- Generator: Adobe Illustrator 19.2.1, SVG Export Plug-In . SVG Version: 6.00 Build 0)  -->
<svg version="1.1" id="Layer_1" xmlns="http://www.w3.org/2000/svg" xmlns:xlink="http://www.w3.org/1999/xlink" x="0px" y="0px"
	 viewBox="0 0 100 100" style="enable-background:new 0 0 100 100;" xml:space="preserve">
<style type="text/css">
	.st0{fill:#FFFFFF;}
</style>
<g>
	<path class="st0" d="M50,2.7C23.9,2.7,2.7,23.9,2.7,50S23.9,97.3,50,97.3S97.3,76.1,97.3,50S76.1,2.7,50,2.7 M50,99.5
		C22.7,99.5,0.5,77.3,0.5,50S22.7,0.5,50,0.5S99.5,22.7,99.5,50S77.3,99.5,50,99.5"/>
	<path class="st0" d="M37.7,11.1c9.5,0,17.3,7.8,17.3,17.3c0,8.1-12.7,22.2-16.7,26.5c-0.3,0.3-0.9,0.3-1.2,0
		c-4-4.2-16.7-18.3-16.7-26.5C20.4,18.9,28.1,11.1,37.7,11.1 M37.1,57.2c0.3,0.3,0.8,0.3,1.2,0c0.7-0.8,18.4-18.6,18.4-28.8
		c0-10.4-8.5-18.9-18.9-18.9S18.9,18,18.9,28.4C18.7,38.6,36.3,56.5,37.1,57.2"/>
	<path class="st0" d="M71.1,63.3c0.7-3.6,1.1-7.3,1.1-11.2s-0.4-7.6-1.1-11.2h9.1c1.3,3.5,2.1,7.3,2.1,11.2s-0.7,7.7-2.1,11.2H71.1z
		 M63.1,81.1c1-1.2,2-2.5,2.9-4c2.1-3.5,3.7-7.7,4.8-12.2h8.7C76.3,72.2,70.4,78,63.1,81.1 M59.6,82.4c-2.6,0.8-5.4,1.2-8.2,1.3
		V64.9h17.7C67.3,72.5,63.9,78.7,59.6,82.4 M66,27.1c-0.9-1.5-1.9-2.8-2.9-4c7.3,3.2,13.2,9,16.4,16.2h-8.7
		C69.7,34.7,68.1,30.6,66,27.1 M49.8,83.7c-2.8-0.1-5.6-0.5-8.2-1.3c-4.3-3.7-7.7-9.9-9.5-17.5h17.7V83.7z M21.7,64.9h8.7
		c1.1,4.5,2.7,8.7,4.8,12.2c0.9,1.5,1.9,2.8,2.9,4C30.8,78,24.9,72.2,21.7,64.9 M56.2,19.3c0.3,0.6,0.5,1.2,0.7,1.8
		c0.9,0.2,1.8,0.4,2.7,0.7c4.3,3.7,7.7,9.9,9.5,17.5H53.6c-0.3,0.5-0.7,1.1-1,1.6h16.9c0.7,3.5,1.1,7.3,1.1,11.2s-0.4,7.7-1.1,11.2
		H51.4V42.7c-0.5,0.8-1.1,1.5-1.6,2.3v18.4H31.7c-0.7-3.5-1.1-7.3-1.1-11.2c0-0.3,0-0.6,0-0.8c-0.5-0.6-1-1.2-1.6-1.9
		c0,0.9-0.1,1.8-0.1,2.7c0,3.9,0.4,7.6,1.1,11.2h-9c-1.3-3.5-2.1-7.3-2.1-11.2S19.6,44.5,21,41h1.7c-0.3-0.5-0.7-1.1-1-1.6l0,0l0,0
		c-0.3-0.6-0.7-1.1-1-1.7c-2.2,4.4-3.4,9.3-3.4,14.6c0,18.3,14.9,33.3,33.3,33.3c18.3,0,33.3-14.9,33.3-33.3
		C83.9,35.7,71.9,22,56.2,19.3"/>
	<path class="st0" d="M31.1,19.6c-0.3-0.3-0.7-0.4-1.1-0.1l-1.9,1.6c-0.1-0.2-0.1-0.3-0.3-0.5c-0.5-0.6-1.4-0.7-2.1-0.2
		c-0.6,0.5-0.7,1.4-0.2,2.1c0.1,0.1,0.3,0.3,0.4,0.4L24,24.5c-0.3,0.3-0.4,0.7-0.1,1.1c0.3,0.3,0.7,0.4,1.1,0.1l5.8-4.9
		C31.3,20.4,31.3,19.9,31.1,19.6"/>
	<path class="st0" d="M32.4,22.3c0.3-0.3,0.4-0.7,0.1-1.1c-0.3-0.3-0.7-0.4-1.1-0.1L25.6,26c-0.3,0.3-0.4,0.7-0.1,1.1
		c0.3,0.3,0.7,0.4,1.1,0.1L32.4,22.3z"/>
	<path class="st0" d="M50.3,24.5l-1.8-1.6c0.2-0.1,0.3-0.2,0.4-0.3c0.5-0.6,0.5-1.5-0.1-2.1c-0.6-0.5-1.5-0.5-2.1,0.1
		c-0.1,0.1-0.2,0.3-0.3,0.5l-1.8-1.6c-0.3-0.3-0.8-0.2-1.1,0.1c-0.3,0.3-0.2,0.8,0.1,1.1l5.7,5c0.3,0.3,0.8,0.2,1.1-0.1
		C50.7,25.3,50.7,24.8,50.3,24.5"/>
	<path class="st0" d="M48.9,26.2l-5.7-5c-0.3-0.3-0.8-0.2-1.1,0.1c-0.3,0.3-0.2,0.8,0.1,1.1l5.7,5c0.3,0.3,0.8,0.2,1.1-0.1
		C49.2,26.9,49.2,26.5,48.9,26.2"/>
	<path class="st0" d="M44.3,27.6l-1.9,2.1h-0.1c0,0,0,0-0.1,0c-0.4-0.4-0.7-0.7-1.2-1l-0.6-0.5v-0.1V28l1.9-2.1h0.1h0.1l1.7,1.5
		C44.3,27.4,44.4,27.5,44.3,27.6 M37.3,39.5c-2.9,0-5.3-2.4-5.3-5.3c0-1.4,0.5-2.6,1.4-3.6l1-0.9c0.8-0.5,1.8-0.9,2.9-0.9
		c1.1,0,2.1,0.3,2.9,0.9l1.1,0.9c0.8,0.9,1.3,2.1,1.3,3.5C42.6,37.2,40.2,39.5,37.3,39.5 M30.5,35.7c0,0.1-0.1,0.1-0.1,0.1h-2.3
		c-0.1,0-0.1-0.1-0.1-0.1v-2.8c0-0.1,0.1-0.1,0.1-0.1h2.3c0.1,0,0.1,0.1,0.1,0.1V35.7z M32.2,29.8L32.2,29.8c-0.1,0-0.2,0-0.2,0
		l-1.8-2.1v-0.1v-0.1L32,26h0.1h0.1l1.8,2.1c0.1,0.1,0,0.2,0,0.2l-0.5,0.4c-0.4,0.3-0.8,0.6-1.1,1L32.2,29.8z M47.3,28l-5.7-5
		c-0.3-0.3-0.8-0.2-1.1,0.1c-0.3,0.3-0.2,0.8,0.1,1.1l0.8,0.7c-0.1,0-0.1,0.1-0.2,0.1l-1.8,2c-0.2,0.2-0.3,0.5-0.4,0.7
		c-0.6-0.2-1.2-0.2-1.8-0.2s-1.2,0.1-1.8,0.3c-0.1-0.2-0.2-0.5-0.3-0.6L33.3,25c0-0.1-0.1-0.1-0.1-0.2l0.8-0.7
		c0.3-0.3,0.4-0.7,0.1-1.1c-0.3-0.3-0.7-0.4-1.1-0.1l-5.8,4.9c-0.3,0.3-0.4,0.7-0.1,1.1c0.3,0.3,0.7,0.4,1.1,0.1l0.8-0.7
		c0,0.1,0.1,0.1,0.1,0.2l1.8,2.1c0.1,0.1,0.3,0.3,0.4,0.4c-0.1,0.1-0.1,0.3-0.2,0.4c-0.2-0.1-0.5-0.2-0.8-0.2H28
		c-0.9,0-1.6,0.7-1.6,1.6v2.8c0,0.9,0.7,1.6,1.6,1.6h2.3c0.3,0,0.5-0.1,0.8-0.2c1.1,2.3,3.4,3.9,6.1,3.9c3.7,0,6.7-3,6.7-6.7
		c0-1.2-0.3-2.3-0.9-3.3c0.1-0.1,0.3-0.2,0.4-0.3l1.9-2.1c0-0.1,0.1-0.1,0.1-0.2l0.8,0.7c0.3,0.3,0.8,0.2,1.1-0.1
		C47.6,28.7,47.6,28.2,47.3,28"/>
</g>
</svg>
