<?xml version="1.0" encoding="utf-8"?>
<!-- Generator: Adobe Illustrator 19.2.1, SVG Export Plug-In . SVG Version: 6.00 Build 0)  -->
<svg version="1.1" id="Layer_1" xmlns="http://www.w3.org/2000/svg" xmlns:xlink="http://www.w3.org/1999/xlink" x="0px" y="0px"
	 viewBox="0 0 100 100" style="enable-background:new 0 0 100 100;" xml:space="preserve">
<style type="text/css">
	.st0{fill:#FFFFFF;}
</style>
<g>
	<path class="st0" d="M50,2.7C23.9,2.7,2.7,23.9,2.7,50c0,26.1,21.2,47.3,47.3,47.3S97.3,76.1,97.3,50C97.3,23.9,76.1,2.7,50,2.7
		 M50,99.5C22.7,99.5,0.5,77.3,0.5,50C0.5,22.7,22.7,0.5,50,0.5S99.5,22.7,99.5,50C99.5,77.3,77.3,99.5,50,99.5"/>
	<path class="st0" d="M29.6,56H8.4c-0.6,0-1.1-0.5-1.1-1.1s0.5-1.1,1.1-1.1h21.2c0.6,0,1.1,0.5,1.1,1.1S30.3,56,29.6,56"/>
	<path class="st0" d="M31.2,65.6H10c-0.6,0-1.1-0.5-1.1-1.1c0-0.6,0.5-1.1,1.1-1.1h21.2c0.6,0,1.1,0.5,1.1,1.1
		C32.3,65.1,31.8,65.6,31.2,65.6"/>
	<path class="st0" d="M38.1,75.3H16.8c-0.6,0-1.1-0.5-1.1-1.1c0-0.6,0.5-1.1,1.1-1.1h21.2c0.6,0,1.1,0.5,1.1,1.1
		C39.2,74.8,38.7,75.3,38.1,75.3"/>
	<path class="st0" d="M65.9,33.1h21.2c0.6,0,1.1,0.5,1.1,1.1c0,0.6-0.5,1.1-1.1,1.1H65.9c-0.6,0-1.1-0.5-1.1-1.1
		C64.7,33.6,65.2,33.1,65.9,33.1"/>
	<path class="st0" d="M60,23.4h21.2c0.6,0,1.1,0.5,1.1,1.1c0,0.6-0.5,1.1-1.1,1.1H60c-0.6,0-1.1-0.5-1.1-1.1
		C58.8,23.9,59.3,23.4,60,23.4"/>
	<path class="st0" d="M49.2,13.8h21.2c0.6,0,1.1,0.5,1.1,1.1c0,0.6-0.5,1.1-1.1,1.1H49.2c-0.6,0-1.1-0.5-1.1-1.1
		C48,14.3,48.6,13.8,49.2,13.8"/>
	<path class="st0" d="M60.5,56.4c-3.3,0-6,2.7-6,6c0,3.3,2.7,6,6,6c3.3,0,6-2.7,6-6C66.5,59.1,63.8,56.4,60.5,56.4 M60.5,71
		c-4.8,0-8.7-3.9-8.7-8.7c0-4.8,3.9-8.7,8.7-8.7c4.8,0,8.7,3.9,8.7,8.7C69.2,67.2,65.3,71,60.5,71 M52.1,74c0.3,0,0.5,0.1,0.7,0.2
		c1.5,0.9,3,1.6,4.7,1.9c0.6,0.1,1.1,0.7,1.1,1.3v3.8c0,1.1,0.9,1.9,1.9,1.9c1.1,0,1.9-0.9,1.9-1.9v-3.8c0-0.6,0.4-1.2,1.1-1.3
		c1.7-0.4,3.2-1,4.7-1.9c0.5-0.3,1.2-0.3,1.7,0.2l2.7,2.7c0.4,0.4,0.8,0.6,1.4,0.6c0.5,0,1-0.2,1.4-0.6c0.4-0.4,0.6-0.8,0.6-1.4
		c0-0.5-0.2-1-0.6-1.4l-2.7-2.7c-0.4-0.4-0.5-1.1-0.2-1.7c0.9-1.4,1.6-3,1.9-4.7c0.1-0.6,0.7-1.1,1.3-1.1h3.8c1.1,0,1.9-0.9,1.9-1.9
		c0-1.1-0.9-1.9-1.9-1.9h-3.8c-0.6,0-1.2-0.4-1.3-1.1c-0.4-1.7-1-3.3-1.9-4.7c-0.3-0.5-0.3-1.2,0.2-1.7l2.7-2.7
		c0.4-0.4,0.6-0.8,0.6-1.4c0-0.5-0.2-1-0.6-1.4c-0.4-0.4-0.8-0.6-1.4-0.6c-0.5,0-1,0.2-1.4,0.6l-2.7,2.7c-0.4,0.4-1.1,0.5-1.7,0.2
		c-1.4-0.9-3-1.6-4.7-1.9c-0.6-0.1-1.1-0.7-1.1-1.3v-3.8c0-1.1-0.9-1.9-1.9-1.9c-1.1,0-1.9,0.9-1.9,1.9v3.8c0,0.6-0.4,1.2-1.1,1.3
		c-1.7,0.4-3.3,1-4.7,1.9c-0.5,0.3-1.2,0.3-1.7-0.2l-2.7-2.7c-0.4-0.4-0.8-0.6-1.4-0.6c-0.5,0-1,0.2-1.4,0.6
		c-0.4,0.4-0.6,0.8-0.6,1.4c0,0.5,0.2,1,0.6,1.4l2.7,2.7c0.4,0.4,0.5,1.1,0.2,1.7c-0.9,1.4-1.6,3-2,4.7c-0.1,0.6-0.7,1.1-1.3,1.1
		h-3.8c-1.1,0-1.9,0.9-1.9,1.9c0,1.1,0.9,1.9,1.9,1.9h3.8c0.6,0,1.2,0.4,1.3,1.1c0.4,1.7,1,3.3,2,4.7c0.3,0.5,0.3,1.2-0.2,1.7
		l-2.7,2.7c-0.4,0.4-0.6,0.8-0.6,1.4c0,0.5,0.2,1,0.6,1.4c0.4,0.4,0.8,0.6,1.4,0.6c0.5,0,1-0.2,1.4-0.6l2.7-2.7
		C51.4,74.2,51.8,74,52.1,74 M60.5,85.9c-2.5,0-4.6-2.1-4.6-4.6v-2.8c-1.2-0.4-2.4-0.9-3.6-1.5l-2,2c-0.9,0.9-2,1.3-3.3,1.3
		s-2.4-0.5-3.3-1.3c-0.9-0.9-1.4-2-1.4-3.3c0-1.2,0.5-2.4,1.3-3.3l2-2c-0.6-1.1-1.1-2.3-1.5-3.6h-2.8C39,67,37,64.9,37,62.4
		c0-2.5,2.1-4.6,4.6-4.6h2.8c0.4-1.3,0.9-2.5,1.5-3.6l-2-2c-0.9-0.9-1.4-2-1.4-3.3c0-1.2,0.5-2.4,1.3-3.3c0.9-0.9,2-1.3,3.3-1.3
		s2.4,0.5,3.3,1.3l2,2c1.1-0.6,2.3-1.1,3.6-1.5v-2.8c0-2.5,2.1-4.6,4.6-4.6c2.5,0,4.6,2.1,4.6,4.6v2.8c1.3,0.4,2.5,0.9,3.6,1.5l2-2
		c0.9-0.9,2-1.3,3.3-1.3c1.2,0,2.4,0.5,3.3,1.3c0.9,0.9,1.4,2,1.4,3.3c0,1.2-0.5,2.4-1.4,3.3l-2,2c0.6,1.1,1.1,2.3,1.5,3.6h2.8
		c2.5,0,4.6,2.1,4.6,4.6c0,2.5-2.1,4.6-4.6,4.6h-2.8c-0.4,1.3-0.9,2.5-1.5,3.6l2,2c0.9,0.9,1.3,2,1.4,3.3c0,1.2-0.5,2.4-1.4,3.3
		c-0.9,0.9-2,1.3-3.3,1.3c-1.2,0-2.4-0.5-3.3-1.3l-2-2c-1.1,0.6-2.3,1.1-3.6,1.5v2.8C65.1,83.9,63.1,85.9,60.5,85.9"/>
	<path class="st0" d="M32.2,31.1c-1.6,0-3,1-3.5,2.5c-0.6,1.9,0.4,4,2.4,4.7c0.4,0.1,0.8,0.2,1.1,0.2c1.6,0,3-1,3.5-2.5
		c0.6-1.9-0.4-4-2.4-4.7C33,31.1,32.6,31.1,32.2,31.1 M32.2,40.7c-0.6,0-1.3-0.1-1.9-0.3c-3.1-1-4.9-4.4-3.8-7.6
		c0.8-2.5,3.1-4.1,5.7-4.1c0.6,0,1.3,0.1,1.9,0.3c3.1,1,4.9,4.4,3.8,7.6C37.1,39.1,34.8,40.7,32.2,40.7 M24.3,40
		c0.3,0,0.7,0.1,0.9,0.4c0.7,0.9,1.5,1.6,2.5,2.1c0.5,0.3,0.7,0.8,0.5,1.3l-0.8,2.4c-0.2,0.5,0.1,1.1,0.6,1.3
		c0.5,0.2,1.1-0.1,1.3-0.6l0.8-2.4c0.2-0.5,0.7-0.8,1.2-0.8c1.1,0.1,2.2,0,3.2-0.3c0.5-0.1,1.1,0.1,1.3,0.6l1.1,2.2
		c0.2,0.5,0.9,0.7,1.4,0.4c0.5-0.2,0.7-0.9,0.4-1.4l-1.1-2.2c-0.2-0.5-0.1-1.1,0.3-1.4c0.9-0.7,1.6-1.5,2.1-2.5
		c0.3-0.5,0.8-0.7,1.3-0.5l2.4,0.8c0.5,0.2,1.1-0.1,1.3-0.6c0.2-0.5-0.1-1.1-0.6-1.3L42,36.9c-0.5-0.2-0.8-0.7-0.8-1.2
		c0.1-1.1,0-2.2-0.3-3.2c-0.1-0.5,0.1-1.1,0.6-1.3l2.2-1.1c0.2-0.1,0.4-0.3,0.5-0.6c0.1-0.3,0.1-0.5-0.1-0.8
		c-0.2-0.5-0.9-0.7-1.4-0.4l-2.2,1.1c-0.5,0.2-1.1,0.1-1.4-0.3c-0.7-0.9-1.5-1.6-2.5-2.1c-0.5-0.3-0.7-0.8-0.5-1.3l0.8-2.4
		c0.1-0.3,0.1-0.5-0.1-0.8c-0.1-0.2-0.3-0.4-0.6-0.5c-0.5-0.2-1.1,0.1-1.3,0.6l-0.8,2.4c-0.2,0.5-0.7,0.8-1.2,0.8
		c-1.1-0.1-2.2,0-3.3,0.3c-0.5,0.1-1.1-0.1-1.3-0.6l-1.1-2.2c-0.2-0.5-0.9-0.7-1.3-0.4c-0.5,0.2-0.7,0.9-0.4,1.4l1.1,2.2
		c0.2,0.5,0.1,1.1-0.3,1.4c-0.8,0.7-1.6,1.5-2.1,2.5c-0.3,0.5-0.8,0.7-1.3,0.5l-2.4-0.8c-0.1,0-0.2,0-0.3,0c-0.4,0-0.8,0.3-1,0.7
		c-0.2,0.5,0.1,1.1,0.6,1.3l2.4,0.8c0.5,0.2,0.8,0.7,0.8,1.2c-0.1,1.1,0,2.2,0.3,3.2c0.1,0.5-0.1,1.1-0.6,1.3l-2.2,1.1
		c-0.2,0.1-0.4,0.3-0.5,0.6c-0.1,0.3-0.1,0.5,0.1,0.8c0.2,0.3,0.5,0.5,0.9,0.5c0.2,0,0.3,0,0.5-0.1l2.2-1.1
		C23.9,40.1,24.1,40,24.3,40 M28.3,49.9c-0.3,0-0.7-0.1-1-0.2c-1.7-0.6-2.7-2.4-2.1-4.2l0.5-1.5c-0.6-0.4-1.2-0.9-1.7-1.5l-1.5,0.7
		c-0.5,0.2-1,0.4-1.5,0.4c-1.2,0-2.4-0.7-2.9-1.8c-0.4-0.8-0.5-1.7-0.2-2.5c0.3-0.8,0.9-1.5,1.6-1.9l1.4-0.7
		c-0.1-0.7-0.2-1.5-0.2-2.2L19.3,34c-1.7-0.6-2.7-2.4-2.1-4.2c0.4-1.4,1.7-2.3,3.1-2.3c0.3,0,0.7,0.1,1,0.2l1.5,0.5
		c0.4-0.6,0.9-1.2,1.4-1.7l-0.7-1.5c-0.8-1.6-0.2-3.6,1.5-4.4c0.5-0.2,1-0.4,1.5-0.4c1.3,0,2.4,0.7,2.9,1.8l0.7,1.5
		c0.7-0.1,1.5-0.2,2.2-0.2l0.5-1.5c0.4-1.4,1.7-2.3,3.1-2.3c0.3,0,0.7,0.1,1,0.2c0.8,0.3,1.5,0.9,1.9,1.6c0.4,0.8,0.5,1.7,0.2,2.5
		l-0.5,1.5c0.6,0.4,1.2,0.9,1.7,1.5l1.4-0.7c0.5-0.2,1-0.4,1.5-0.4c1.3,0,2.4,0.7,2.9,1.8c0.4,0.8,0.5,1.7,0.2,2.5
		c-0.3,0.8-0.9,1.5-1.6,1.9l-1.4,0.7c0.1,0.7,0.2,1.5,0.2,2.2l1.5,0.5c1.7,0.6,2.7,2.4,2.1,4.2c-0.4,1.4-1.7,2.3-3.1,2.3
		c-0.3,0-0.7-0.1-1-0.2l-1.5-0.5c-0.4,0.6-0.9,1.2-1.5,1.7l0.7,1.5c0.8,1.6,0.2,3.6-1.5,4.4c-0.5,0.2-1,0.4-1.5,0.4
		c-1.2,0-2.4-0.7-2.9-1.8l-0.7-1.5c-0.7,0.1-1.5,0.2-2.2,0.2l-0.5,1.5C31,49,29.8,49.9,28.3,49.9"/>
</g>
</svg>
