<?xml version="1.0" encoding="utf-8"?>
<!-- Generator: Adobe Illustrator 19.2.1, SVG Export Plug-In . SVG Version: 6.00 Build 0)  -->
<svg version="1.1" id="Layer_1" xmlns="http://www.w3.org/2000/svg" xmlns:xlink="http://www.w3.org/1999/xlink" x="0px" y="0px"
	 viewBox="0 0 200 200" style="enable-background:new 0 0 200 200;" xml:space="preserve">
<style type="text/css">
	.st0{fill:#FFFFFF;}
</style>
<path class="st0" d="M100.3,192.2C50,192.2,9,151.3,9,100.9C9,50.6,50,9.6,100.3,9.6c50.4,0,91.3,41,91.3,91.3
	C191.7,151.3,150.7,192.2,100.3,192.2L100.3,192.2z M100.3,13.6c-48.1,0-87.3,39.2-87.3,87.3c0,48.1,39.2,87.3,87.3,87.3
	s87.3-39.1,87.3-87.3C187.6,52.8,148.5,13.6,100.3,13.6L100.3,13.6z"/>
<path class="st0" d="M67,86.4l-17.6-4.7l-1.6,6l17.6,4.7C65.7,90.3,66.3,88.3,67,86.4L67,86.4z"/>
<path class="st0" d="M77.5,71.3L64.6,58.4l-4.4,4.4l12.9,12.9C74.5,74.1,75.9,72.7,77.5,71.3L77.5,71.3z"/>
<path class="st0" d="M135.3,92.4l17.6-4.7l-1.6-6l-17.6,4.7C134.4,88.3,134.9,90.3,135.3,92.4L135.3,92.4z"/>
<path class="st0" d="M127.5,75.7l12.9-12.9l-4.4-4.4l-12.9,12.9C124.7,72.7,126.2,74.1,127.5,75.7L127.5,75.7z"/>
<path class="st0" d="M65.4,104.7l-17.6,4.7l1.6,6l17.6-4.7C66.3,108.8,65.7,106.8,65.4,104.7L65.4,104.7z"/>
<path class="st0" d="M133.7,110.7l17.6,4.7l1.6-6l-17.6-4.7C134.9,106.8,134.4,108.8,133.7,110.7L133.7,110.7z"/>
<path class="st0" d="M131,137.2l-8.2-18.3V96.1c0-11.4-8.5-20.8-19.4-22.3V63.2c-1-0.1-2.1-0.1-3.1-0.1c-1,0-2.1,0.1-3.1,0.1v10.6
	c-11,1.5-19.4,10.9-19.4,22.3v22.7l-8.2,18.3h24.5c0,3.4,2.8,6.2,6.2,6.2c3.4,0,6.2-2.8,6.2-6.2H131L131,137.2z M84,120.2V96.1
	c0-9,7.3-16.3,16.3-16.3c9,0,16.3,7.3,16.3,16.3v24.1l4.8,10.8H79.2L84,120.2L84,120.2z"/>
</svg>
