<?xml version="1.0" encoding="utf-8"?>
<!-- Generator: Adobe Illustrator 19.2.1, SVG Export Plug-In . SVG Version: 6.00 Build 0)  -->
<svg version="1.1" id="Layer_1" xmlns="http://www.w3.org/2000/svg" xmlns:xlink="http://www.w3.org/1999/xlink" x="0px" y="0px"
	 viewBox="0 0 100 100" style="enable-background:new 0 0 100 100;" xml:space="preserve">
<style type="text/css">
	.st0{fill:#FFFFFF;}
</style>
<g>
	<path class="st0" d="M50,2.7C23.9,2.7,2.7,23.9,2.7,50c0,26.1,21.2,47.3,47.3,47.3S97.3,76.1,97.3,50C97.3,23.9,76.1,2.7,50,2.7
		 M50,99.5C22.7,99.5,0.5,77.3,0.5,50C0.5,22.7,22.7,0.5,50,0.5S99.5,22.7,99.5,50C99.5,77.3,77.3,99.5,50,99.5"/>
	<path class="st0" d="M50,75.9c-2.4,0-4.3-2-4.3-4.5c0-1.7,1-3.3,2.4-4l0.6-0.3V52.9L37,45.8l-0.6,0.4C35.7,46.8,34.9,47,34,47
		c-2.4,0-4.3-2-4.3-4.5c0-2.5,1.9-4.5,4.3-4.5c2.4,0,4.3,2,4.3,4.5c0,0.1,0,0.3,0,0.4l-0.1,0.7l11.7,7l12-7.2l-0.1-0.8
		c0-0.1,0-0.1,0-0.2c0-2.5,1.9-4.5,4.3-4.5c2.4,0,4.3,2,4.3,4.5c0,2.5-1.9,4.5-4.3,4.5c-0.9,0-1.8-0.3-2.5-0.9L63,45.7l-11.8,7.1V67
		l0.6,0.3c1.5,0.7,2.5,2.3,2.5,4.1C54.3,73.8,52.4,75.9,50,75.9"/>
	<path class="st0" d="M66.1,71c-4.9,0-8.8-4.2-8.8-9.3s4-9.3,8.8-9.3c4.9,0,8.8,4.2,8.8,9.3S70.9,71,66.1,71 M66.1,55
		c-3.6,0-6.4,3-6.4,6.8c0,3.7,2.9,6.8,6.4,6.8c3.6,0,6.4-3,6.4-6.8C72.5,58,69.6,55,66.1,55"/>
	<path class="st0" d="M34,71c-4.9,0-8.8-4.2-8.8-9.3s4-9.3,8.8-9.3c4.9,0,8.8,4.2,8.8,9.3S38.9,71,34,71 M34,55
		c-3.6,0-6.4,3-6.4,6.8c0,3.7,2.9,6.8,6.4,6.8s6.4-3,6.4-6.8C40.4,58,37.5,55,34,55"/>
	<path class="st0" d="M50,42.2c-4.9,0-8.8-4.2-8.8-9.3c0-5.1,4-9.3,8.8-9.3c4.9,0,8.8,4.2,8.8,9.3C58.9,38,54.9,42.2,50,42.2
		 M50,26.1c-3.6,0-6.4,3-6.4,6.8c0,3.7,2.9,6.8,6.4,6.8c3.6,0,6.4-3,6.4-6.8C56.5,29.2,53.6,26.1,50,26.1"/>
	<path class="st0" d="M39.7,27.3l-1.9-1c2.3-4.6,7-7.5,12.2-7.5c5.1,0,9.8,2.8,12.1,7.4l-1.9,1c-2-3.8-5.9-6.2-10.2-6.2
		C45.6,21,41.7,23.4,39.7,27.3"/>
	<path class="st0" d="M35.6,25.4l-1.9-1c3.1-6.2,9.4-10,16.3-10c6.9,0,13.1,3.8,16.3,9.9l-1.9,1c-2.8-5.4-8.3-8.7-14.3-8.7
		C43.8,16.6,38.3,20,35.6,25.4"/>
	<path class="st0" d="M30.8,75.5c-5.1-1.1-9-4.9-10.3-9.9c-1.3-5,0.3-10.2,4.2-13.6l1.4,1.6c-3.2,2.9-4.6,7.2-3.5,11.4
		c1.1,4.2,4.4,7.4,8.6,8.4L30.8,75.5z"/>
	<path class="st0" d="M30,80c-6.8-1.5-12-6.6-13.8-13.3C14.6,60,16.7,53,21.8,48.5l1.4,1.6c-4.5,4-6.4,10.2-4.9,16
		c1.5,5.9,6.2,10.4,12.1,11.7L30,80z"/>
	<path class="st0" d="M68.9,75.5l-0.5-2.1c4.3-0.9,7.6-4.1,8.6-8.4c1.1-4.2-0.3-8.6-3.5-11.4L75,52c3.8,3.4,5.4,8.6,4.2,13.6
		C77.9,70.6,74,74.4,68.9,75.5"/>
	<path class="st0" d="M69.8,80l-0.5-2.1c6-1.3,10.6-5.8,12.1-11.7c1.5-5.9-0.4-12-4.9-16l1.4-1.6c5.1,4.6,7.3,11.5,5.6,18.2
		C81.8,73.4,76.5,78.5,69.8,80"/>
</g>
</svg>
