<?xml version="1.0" encoding="utf-8"?>
<!-- Generator: Adobe Illustrator 19.2.1, SVG Export Plug-In . SVG Version: 6.00 Build 0)  -->
<svg version="1.1" id="Layer_1" xmlns="http://www.w3.org/2000/svg" xmlns:xlink="http://www.w3.org/1999/xlink" x="0px" y="0px"
	 viewBox="0 0 200 200" style="enable-background:new 0 0 200 200;" xml:space="preserve">
<style type="text/css">
	.st0{fill:#FFFFFF;}
</style>
<g>
	<path class="st0" d="M185.4,11.3h-51.2c-4.2,0-7.5,3.3-7.5,7.3s3.4,7.3,7.5,7.3H167L120.8,70c-1.4,1.4-2.2,3.2-2.2,5.2
		s0.8,3.8,2.2,5.2c1.4,1.4,3.3,2.1,5.3,2.1s3.9-0.7,5.3-2.1L177.8,36v31.4c0,4,3.4,7.3,7.5,7.3c4.2,0,7.5-3.3,7.5-7.3V18.5
		C192.9,14.5,189.5,11.3,185.4,11.3z"/>
	<path class="st0" d="M14.6,74.7c4.2,0,7.5-3.3,7.5-7.3V36l46.4,44.3c1.4,1.4,3.3,2.1,5.3,2.1s3.9-0.7,5.3-2.1s2.2-3.2,2.2-5.2
		s-0.8-3.8-2.2-5.2L33,25.8h32.9c4.2,0,7.5-3.3,7.5-7.3s-3.4-7.3-7.5-7.3H14.6c-4.2,0-7.5,3.3-7.5,7.3v48.9
		C7.1,71.4,10.5,74.7,14.6,74.7z"/>
	<path class="st0" d="M68.6,119.7L22.2,164v-31.4c0-4-3.4-7.3-7.5-7.3c-4.2,0-7.5,3.3-7.5,7.3v48.9c0,4,3.4,7.3,7.5,7.3h51.2
		c4.2,0,7.5-3.3,7.5-7.3s-3.4-7.3-7.5-7.3H33l46.2-44.1c1.4-1.4,2.2-3.2,2.2-5.2s-0.8-3.8-2.2-5.2C76.3,116.9,71.6,116.9,68.6,119.7
		z"/>
	<path class="st0" d="M185.4,125.3c-4.2,0-7.5,3.3-7.5,7.3V164l-46.4-44.3c-2.9-2.8-7.7-2.8-10.6,0c-1.4,1.4-2.2,3.2-2.2,5.2
		s0.8,3.8,2.2,5.2l46.2,44.1h-32.9c-4.2,0-7.5,3.3-7.5,7.3s3.4,7.3,7.5,7.3h51.2c4.2,0,7.5-3.3,7.5-7.3v-48.9
		C192.9,128.6,189.5,125.3,185.4,125.3z"/>
</g>
</svg>
