<?xml version="1.0" encoding="utf-8"?>
<!-- Generator: Adobe Illustrator 19.2.1, SVG Export Plug-In . SVG Version: 6.00 Build 0)  -->
<svg version="1.1" id="Layer_1" xmlns="http://www.w3.org/2000/svg" xmlns:xlink="http://www.w3.org/1999/xlink" x="0px" y="0px"
	 viewBox="0 0 200 200" style="enable-background:new 0 0 200 200;" xml:space="preserve">
<style type="text/css">
	.st0{fill:#FFFFFF;}
</style>
<path class="st0" d="M10.6,99.4h-4c0,51.3,41.6,92.9,92.9,92.9s92.9-41.6,92.9-92.9S150.8,6.5,99.5,6.5S6.6,48.1,6.6,99.4H10.6h4
	c0-23.4,9.5-44.6,24.9-60C54.8,24,76,14.6,99.4,14.6s44.6,9.5,59.9,24.8c15.4,15.4,24.9,36.5,24.9,60s-9.5,44.6-24.9,60
	c-15.3,15.4-36.5,24.8-59.9,24.8s-44.6-9.5-59.9-24.8c-15.4-15.4-24.9-36.5-24.9-60L10.6,99.4L10.6,99.4z"/>
<path class="st0" d="M99.6,40.1c-1.3,0-2.3,0.4-3.2,1.3l-48,47.8c-1.9,1.9-1.9,5,0,6.7c1,1,2.3,1.5,3.5,1.5s2.4-0.5,3.3-1.5
	l44.4-44.5l44.5,44.5c0.9,0.9,1.9,1.3,3.2,1.3s2.4-0.4,3.3-1.3c1.9-1.7,1.9-4.8,0-6.7l-47.7-47.8C102,40.5,100.9,40.1,99.6,40.1"/>
<path class="st0" d="M132.6,92.4c-2.6,0-4.8,2.2-4.8,4.8V138h-12.2v-28.9c0-2.6-2.2-4.8-4.8-4.8H88.4c-2.7,0-4.8,2.2-4.8,4.8V138
	H71.4V97.1c0-2.6-2.2-4.8-4.8-4.8c-2.6,0-4.8,2.2-4.8,4.8v45.4c0,2.6,2.2,4.8,4.8,4.8h21.7c2.6,0,4.5-2.2,4.5-4.8v-28.7H106v28.7
	c0,2.6,2.2,4.8,4.8,4.8h21.7c2.6,0,4.5-2.2,4.5-4.8V97.1C137.1,94.5,135.2,92.4,132.6,92.4"/>
</svg>
