<?xml version="1.0" encoding="utf-8"?>
<!-- Generator: Adobe Illustrator 19.2.1, SVG Export Plug-In . SVG Version: 6.00 Build 0)  -->
<svg version="1.1" id="Layer_1" xmlns="http://www.w3.org/2000/svg" xmlns:xlink="http://www.w3.org/1999/xlink" x="0px" y="0px"
	 viewBox="0 0 33 33" style="enable-background:new 0 0 33 33;" xml:space="preserve">
<style type="text/css">
	.st0{fill:#fff;}
</style>
<g>
	<path class="st0" d="M9.6,7.8c-1,0-1.9,0.8-1.9,1.9v13.5c0,1,0.8,1.8,1.9,1.8h14.2c1.1,0,2-0.9,2-1.9V11.8c0-0.5-0.1-0.9-0.4-1.2
		C25,10.2,24.6,10,24.2,10h-2.5c-0.9,0-1.5,0.7-1.5,1.6v3.9c0,0.7,0.5,1.2,1.2,1.2h1L19.3,21l-3.1-4.1h0.6c0.8,0,1.5-0.6,1.5-1.5v-3
		c0-0.3-0.2-0.5-0.5-0.5s-0.5,0.2-0.5,0.5v3c0,0.2-0.2,0.4-0.4,0.4H16c-0.4,0-0.7,0.2-0.9,0.5c-0.2,0.4-0.2,0.7,0.1,1l3.1,4.3
		c0.3,0.3,0.6,0.5,1,0.5c0.3,0,0.8-0.1,1-0.5l2.9-3.9c0.2-0.3,0.4-0.9,0.1-1.2l0,0c-0.2-0.4-0.6-0.7-1.1-0.7h-1v-4
		c0-0.3,0.2-0.5,0.5-0.5h2.5c0.3,0,0.6,0.3,0.6,0.5V23c0,0.5-0.4,0.9-0.9,0.9H9.7c-0.4,0-0.8-0.4-0.8-0.8V9.5c0-0.4,0.3-0.6,0.6-0.6
		h5.1l2.7,2.3c0.3,0.2,0.5,0.4,0.9,0.4H19c0.3,0,0.5-0.2,0.5-0.6s-0.2-0.6-0.5-0.6h-0.9l-2.7-2.3c-0.3-0.2-0.5-0.4-0.9-0.4H9.6V7.8z
		"/>
</g>
<path class="st0" d="M16.5,32.4c-8.8,0-15.9-7.1-15.9-15.9S7.7,0.6,16.5,0.6s15.9,7.1,15.9,15.9S25.3,32.4,16.5,32.4z M16.5,1.4
	C8.2,1.4,1.4,8.2,1.4,16.5s6.8,15.1,15.1,15.1s15.1-6.8,15.1-15.1S24.8,1.4,16.5,1.4z"/>
</svg>
