<?xml version="1.0" encoding="utf-8"?>
<!-- Generator: Adobe Illustrator 19.2.1, SVG Export Plug-In . SVG Version: 6.00 Build 0)  -->
<svg version="1.1" id="Layer_1" xmlns="http://www.w3.org/2000/svg" xmlns:xlink="http://www.w3.org/1999/xlink" x="0px" y="0px"
	 viewBox="0 0 200 200" style="enable-background:new 0 0 200 200;" xml:space="preserve">
<style type="text/css">
	.st0{fill:#FFFFFF;}
</style>
<path class="st0" d="M99.7,6.4c51.3,0,93,41.7,93,93s-41.7,93-93,93s-93-41.7-93-93C6.7,48.1,48.4,6.4,99.7,6.4L99.7,6.4z
	 M99.7,183.6c46.4,0,84.1-37.8,84.1-84.2S146,15.2,99.7,15.2c-46.4,0-84.2,37.8-84.2,84.2C15.5,145.8,53.3,183.6,99.7,183.6
	L99.7,183.6z"/>
<path class="st0" d="M120.3,118.3c-2.2,0-4,1.8-4,4V140l-46.8,7.9v-97l46.8,7.9v13.1c0,2.2,1.9,4,4,4c2.2,0,4-1.8,4-4V58.3
	c0-3.7-2.6-6.8-6.1-7.4l-48.1-8.1c-2.2-0.4-4.4,0.2-6.1,1.6c-1.6,1.4-2.6,3.5-2.6,5.7v98.3c0,2.2,1,4.3,2.6,5.7
	c1.4,1.1,3.1,1.8,4.8,1.8l1.3-0.1l48.1-8.1c3.6-0.6,6.1-3.7,6.1-7.4v-18.2C124.3,120.1,122.5,118.3,120.3,118.3L120.3,118.3z"/>
<path class="st0" d="M159.7,94.3l-22.8-22.9c-1.6-1.6-4.1-1.6-5.7,0c-0.8,0.8-1.2,1.8-1.2,2.8c0,1.1,0.4,2.1,1.2,2.8l16,16H92.8
	c-2.2,0-4,1.8-4,4s1.8,4,4,4h54.4l-16,16c-0.8,0.8-1.2,1.8-1.2,2.8c0,1.1,0.4,2.1,1.2,2.8c0.7,0.8,1.7,1.2,2.8,1.2s2-0.4,2.8-1.2
	l22.8-22.9C161.3,98.4,161.3,95.8,159.7,94.3L159.7,94.3z"/>
</svg>
