<?xml version="1.0" encoding="utf-8"?>
<!-- Generator: Adobe Illustrator 19.2.1, SVG Export Plug-In . SVG Version: 6.00 Build 0)  -->
<svg version="1.1" id="Layer_1" xmlns="http://www.w3.org/2000/svg" xmlns:xlink="http://www.w3.org/1999/xlink" x="0px" y="0px"
	 viewBox="0 0 200 200" style="enable-background:new 0 0 200 200;" xml:space="preserve">
<style type="text/css">
	.st0{fill:#FFFFFF;}
</style>
<path class="st0" d="M99.9,6.4c51.3,0,93,41.7,93,93s-41.7,93-93,93s-93-41.7-93-93C6.8,48.1,48.6,6.4,99.9,6.4L99.9,6.4z
	 M99.9,183.6c46.4,0,84.1-37.8,84.1-84.2s-37.8-84.2-84.1-84.2c-46.4,0-84.2,37.8-84.2,84.2C15.6,145.8,53.4,183.6,99.9,183.6
	L99.9,183.6z"/>
<path class="st0" d="M131.8,90.5L86.5,49.2h-0.1c-1.1-1-2.6-1.5-4-1.5c-1.7,0-3.4,0.7-4.6,2c-1.1,1.2-1.6,2.7-1.6,4.1
	c0,1.7,0.7,3.4,2.1,4.6l45,40.9L78,140.4c-1.3,1.2-2,2.9-2,4.6c0,1.5,0.6,3,1.6,4.1c1.2,1.3,2.9,2,4.6,2c1.5,0,3-0.5,4.1-1.6
	l45.5-41.3h0.1c2.3-2.4,3.6-5.5,3.6-8.7S134.3,93,131.8,90.5z"/>
</svg>
