<?xml version="1.0" encoding="utf-8"?>
<!-- Generator: Adobe Illustrator 19.2.1, SVG Export Plug-In . SVG Version: 6.00 Build 0)  -->
<svg version="1.1" id="Layer_1" xmlns="http://www.w3.org/2000/svg" xmlns:xlink="http://www.w3.org/1999/xlink" x="0px" y="0px"
	 viewBox="0 0 33 33" style="enable-background:new 0 0 33 33;" xml:space="preserve">
<path id="timeicon" d="M29.4,17.8c0.1-0.5,0.1-0.9,0.1-1.2c0-7.2-5.9-13.1-13.1-13.1C9.2,3.5,3.3,9.3,3.3,16.6s5.9,13.1,13.1,13.1
	c3.9,0,7.8-1.9,10.3-5c0,0,0.1,0,0.1,0c0.1,0,0.2,0.1,0.3,0.1c2.1,0,3.8-1.7,3.8-3.8C30.9,19.7,30.4,18.6,29.4,17.8z M28.4,20.8
	c0,0.7-0.6,1.3-1.3,1.3s-1.3-0.6-1.3-1.3s0.6-1.3,1.3-1.3S28.4,20.1,28.4,20.8z M23.4,20.4c0,0.2,0,0.3,0,0.4c0,1,0.4,1.9,1,2.6
	c-0.9,1.1-2.1,2-3.4,2.6c-0.1-2.2-0.4-4.4-1.2-6.5C21.2,19.7,22.3,20,23.4,20.4z M10.7,17.8c0.7,0,1.3,0.6,1.3,1.3s-0.6,1.3-1.3,1.3
	s-1.3-0.6-1.3-1.3C9.4,18.2,10,17.8,10.7,17.8z M9.1,8.9c2.8,2,5.2,4.7,6.8,7.8c-0.8,0-1.5,0-2.2,0c-0.7-1-1.8-1.6-3.1-1.6
	c-2,0-3.5,1.4-3.7,3.4c-0.2,0.1-0.3,0.2-0.5,0.2c-0.1,0-0.2,0.1-0.3,0.1c-0.2-0.8-0.3-1.6-0.3-2.4C5.8,13.7,7,11,9.1,8.9z M7.5,21.1
	c0.7,1.1,1.9,1.8,3.2,1.8c2,0,3.6-1.5,3.8-3.5c0.9-0.1,1.7-0.1,2.6-0.1c0.9,2.5,1.4,5.2,1.5,7.7c-0.7,0.2-1.4,0.2-2.1,0.2
	c-4,0-7.6-2.3-9.5-5.9C7.1,21.3,7.3,21.2,7.5,21.1z M18.8,16.8c-1.6-3.7-4.2-6.9-7.6-9.6C11.6,7,12,6.9,12.5,6.7
	c1.3,1.6,2.8,3.1,4.4,4.4c-0.1,0.3-0.1,0.6-0.1,0.8c0,2.1,1.7,3.8,3.8,3.8c1.1,0,2-0.4,2.7-1.2c1.1,0.4,2.3,0.8,3.6,1
	c0.1,0.4,0.1,0.8,0.1,1.1V17c-0.9,0-1.7,0.4-2.3,1.1C22.7,17.5,20.8,17.1,18.8,16.8z M20.5,13.1c-0.7,0-1.3-0.6-1.3-1.3
	s0.6-1.3,1.3-1.3s1.3,0.6,1.3,1.3S21.2,13.1,20.5,13.1z M25.6,12.6c-0.4-0.1-0.9-0.2-1.3-0.4c0-0.1,0.1-0.3,0.1-0.4
	c0-2.1-1.7-3.8-3.8-3.8c-0.9,0-1.7,0.3-2.4,0.9c-1.1-0.9-2.2-1.8-3-2.8c0.4-0.1,0.8-0.1,1.2-0.1c4.3,0,8.2,2.7,9.8,6.7
	C26,12.7,25.8,12.7,25.6,12.6z"/>
</svg>
