<?xml version="1.0" encoding="utf-8"?>
<!-- Generator: Adobe Illustrator 19.2.1, SVG Export Plug-In . SVG Version: 6.00 Build 0)  -->
<svg version="1.1" id="Layer_1" xmlns="http://www.w3.org/2000/svg" xmlns:xlink="http://www.w3.org/1999/xlink" x="0px" y="0px"
	 viewBox="0 0 200 200" style="enable-background:new 0 0 200 200;" xml:space="preserve">
<style type="text/css">
	.st0{fill:#FFFFFF;}
</style>
<path class="st0" d="M11,99.4H7c0,51.4,41.7,93,93,93c51.4,0,93-41.6,93-93s-41.7-93-93-93C48.7,6.4,7,48,7,99.4H11h4
	c0-23.5,9.5-44.7,24.9-60.1C55.4,24,76.6,14.5,100,14.4c23.5,0,44.7,9.5,60,24.9c15.5,15.4,25,36.6,25,60.1s-9.5,44.7-24.9,60.1
	s-36.6,24.9-60,24.9c-23.5,0-44.7-9.5-60-24.9c-15.5-15.4-24.9-36.6-24.9-60.1H11L11,99.4z"/>
<path class="st0" d="M59.3,87.4l-21.4-5.8l-2,7.4l21.4,5.8C57.9,92.2,58.5,89.8,59.3,87.4L59.3,87.4z"/>
<path class="st0" d="M72.2,69.1L56.5,53.4l-5.3,5.4l15.7,15.7C68.5,72.5,70.2,70.7,72.2,69.1L72.2,69.1z"/>
<path class="st0" d="M142.7,94.7l21.5-5.8l-2-7.3l-21.4,5.8C141.5,89.8,142.2,92.2,142.7,94.7L142.7,94.7z"/>
<path class="st0" d="M133.2,74.4l15.7-15.7l-5.3-5.4L127.9,69C129.8,70.7,131.6,72.5,133.2,74.4L133.2,74.4z"/>
<path class="st0" d="M57.4,109.7L36,115.5l1.9,7.3l21.4-5.8C58.5,114.7,57.9,112.3,57.4,109.7L57.4,109.7z"/>
<path class="st0" d="M140.7,117.1l21.4,5.8l2-7.3l-21.5-5.8C142.2,112.3,141.5,114.7,140.7,117.1L140.7,117.1z"/>
<path class="st0" d="M137.4,149.3l-10-22.3V99.3c0-13.9-10.3-25.3-23.6-27.2v-13c-1.3-0.1-2.5-0.2-3.8-0.2s-2.5,0.1-3.8,0.2v13
	C82.9,74,72.6,85.5,72.6,99.3V127l-10,22.3h29.8c0,4.2,3.4,7.6,7.6,7.6s7.6-3.4,7.6-7.6H137.4L137.4,149.3z M80.1,128.6V99.3
	c0-11,8.9-19.9,19.9-19.9s19.9,8.9,19.9,19.9v29.3l5.8,13.1H74.3L80.1,128.6L80.1,128.6z"/>
</svg>
