<?xml version="1.0" encoding="utf-8"?>
<!-- Generator: Adobe Illustrator 19.2.1, SVG Export Plug-In . SVG Version: 6.00 Build 0)  -->
<svg version="1.1" id="Layer_1" xmlns="http://www.w3.org/2000/svg" xmlns:xlink="http://www.w3.org/1999/xlink" x="0px" y="0px"
	 viewBox="0 0 200 200" style="enable-background:new 0 0 200 200;" xml:space="preserve">
<style type="text/css">
	.st0{fill:#FFFFFF;}
</style>
<path class="st0" d="M99.3,193c-52.2,0-94.7-42.5-94.7-94.7c0-52.2,42.5-94.7,94.7-94.7c52.2,0,94.7,42.5,94.7,94.7
	C194,150.5,151.5,193,99.3,193L99.3,193z M99.3,7.9C49.5,7.9,8.9,48.4,8.9,98.3c0,49.9,40.6,90.5,90.5,90.5s90.5-40.6,90.5-90.5
	C189.8,48.4,149.2,7.9,99.3,7.9L99.3,7.9z"/>
<path class="st0" d="M139,71.7c-1.2,0-2.2-1-2.2-2.2V55c0-2.1-2-3.9-4.4-3.9H81.4c-1.2,0-2.2-1-2.2-2.2c0-1.2,1-2.2,2.2-2.2h50.9
	c4.9,0,8.8,3.7,8.8,8.3v14.5C141.2,70.7,140.2,71.7,139,71.7L139,71.7z"/>
<path class="st0" d="M132.4,153H62.9c-4.9,0-8.8-3.7-8.8-8.3V74c0-1.2,1-2.2,2.2-2.2s2.2,1,2.2,2.2v70.7c0,2.1,2,3.9,4.4,3.9h69.4
	c2.4,0,4.4-1.7,4.4-3.9v-12.4c0-1.2,1-2.2,2.2-2.2c1.2,0,2.2,1,2.2,2.2v12.4C141.2,149.3,137.2,153,132.4,153L132.4,153z"/>
<path class="st0" d="M74.8,76.2H56.3c-0.9,0-1.7-0.5-2-1.4c-0.3-0.8-0.2-1.8,0.5-2.4l25.1-25.1c0.6-0.6,1.6-0.8,2.4-0.5
	c0.8,0.3,1.4,1.1,1.4,2v19C83.6,72.5,79.7,76.2,74.8,76.2L74.8,76.2z M61.6,71.8h13.2c2.4,0,4.4-1.7,4.4-3.9V54.2L61.6,71.8
	L61.6,71.8z"/>
<path class="st0" d="M113.6,93.5h-38c-1.2,0-2.2-1-2.2-2.2c0-1.2,1-2.2,2.2-2.2h38c1.2,0,2.2,1,2.2,2.2
	C115.8,92.5,114.8,93.5,113.6,93.5L113.6,93.5z"/>
<path class="st0" d="M101.6,105.9h-26c-1.2,0-2.2-1-2.2-2.2c0-1.2,1-2.2,2.2-2.2h26c1.2,0,2.2,1,2.2,2.2
	C103.8,104.9,102.8,105.9,101.6,105.9L101.6,105.9z"/>
<path class="st0" d="M95.6,118.3h-20c-1.2,0-2.2-1-2.2-2.2s1-2.2,2.2-2.2h20c1.2,0,2.2,1,2.2,2.2S96.8,118.3,95.6,118.3L95.6,118.3z
	"/>
<path class="st0" d="M131.2,132c-0.6,0-1.1-0.2-1.6-0.7c-0.8-0.9-0.8-2.3,0-3.1l36.1-35.1c2.2-2.2,2.3-5.7,0.1-8l-10.5-10.8
	c-1-1.1-2.5-1.7-4-1.7c-1.5,0-2.9,0.5-4,1.6l-36.1,35.1c-0.9,0.8-2.3,0.8-3.1,0c-0.8-0.9-0.8-2.3,0-3.1l36.1-35.1
	c1.9-1.9,4.4-2.9,7.1-2.8c2.7,0,5.2,1.1,7,3l10.5,10.8c3.8,4,3.8,10.3-0.2,14.2l-36.1,35.1C132.3,131.8,131.8,132,131.2,132
	L131.2,132z"/>
<path class="st0" d="M99.3,141.6c-0.6,0-1.2-0.2-1.6-0.7c-0.6-0.6-0.8-1.4-0.5-2.2l9.7-30.8c0.4-1.2,1.6-1.8,2.8-1.4
	c1.2,0.4,1.8,1.6,1.4,2.7l-8.5,26.9l27.2-7.7c1.2-0.3,2.4,0.3,2.7,1.5c0.3,1.2-0.3,2.4-1.5,2.7l-31.1,8.8
	C99.7,141.6,99.5,141.6,99.3,141.6L99.3,141.6z"/>
<path class="st0" d="M130.6,131c-0.6,0-1.1-0.2-1.6-0.7l-19-19.5c-0.8-0.9-0.8-2.3,0-3.1c0.9-0.8,2.3-0.8,3.1,0l19,19.5
	c0.8,0.9,0.8,2.3,0,3.1C131.7,130.8,131.1,131,130.6,131L130.6,131z"/>
<path class="st0" d="M112.8,136c-0.6,0-1.1-0.2-1.6-0.6l-7.5-7.5c-0.9-0.9-0.9-2.2,0-3.1c0.9-0.9,2.2-0.9,3.1,0l7.5,7.5
	c0.9,0.9,0.9,2.2,0,3.1C113.9,135.8,113.3,136,112.8,136L112.8,136z"/>
</svg>
