<?xml version="1.0" encoding="utf-8"?>
<!-- Generator: Adobe Illustrator 19.2.1, SVG Export Plug-In . SVG Version: 6.00 Build 0)  -->
<svg version="1.1" id="Layer_1" xmlns="http://www.w3.org/2000/svg" xmlns:xlink="http://www.w3.org/1999/xlink" x="0px" y="0px"
	 viewBox="0 0 200 200" style="enable-background:new 0 0 200 200;" xml:space="preserve">
<style type="text/css">
	.st0{fill:#FFFFFF;}
</style>
<path class="st0" d="M100,193.4c-51.3,0-93.1-41.7-93.1-93C6.9,49.1,48.7,7.3,100,7.3c51.3,0,93.1,41.7,93.1,93.1
	C193.1,151.7,151.3,193.4,100,193.4L100,193.4z M100,11.5c-49,0-88.9,39.9-88.9,88.9c0,49,39.9,88.9,88.9,88.9s88.9-39.9,88.9-88.9
	C188.9,51.4,149,11.5,100,11.5L100,11.5z"/>
<path class="st0" d="M141.8,118.3c-0.3,0-0.7-0.1-1-0.2c-18.1-7-37.9-9.3-57.2-6.8c-1.6,0.2-2.9-0.9-3.1-2.4
	c-0.2-1.5,0.9-2.9,2.4-3.1c20.2-2.6,41-0.2,59.9,7.1c1.4,0.5,2.1,2.1,1.6,3.6C143.9,117.6,142.9,118.3,141.8,118.3L141.8,118.3z"/>
<path class="st0" d="M43,124.2c-1,0-1.9-0.5-2.4-1.5c-0.7-1.3-0.2-3,1.1-3.7c4.4-2.3,9-4.4,13.7-6.2c1.4-0.5,3,0.2,3.6,1.6
	c0.5,1.4-0.2,3-1.6,3.6c-4.5,1.7-8.9,3.7-13.1,5.9C43.8,124.1,43.4,124.2,43,124.2L43,124.2z"/>
<path class="st0" d="M116,156.9L116,156.9c-1.5,0-2.8-1.2-2.8-2.8c0.1-38.7-18.9-74.8-50.8-96.7c-1.3-0.9-1.6-2.6-0.7-3.8
	c0.9-1.3,2.6-1.6,3.8-0.7c33.4,22.9,53.3,60.7,53.2,101.2C118.7,155.7,117.5,156.9,116,156.9L116,156.9z"/>
<path class="st0" d="M109.1,73.1c-0.5,0-1.1-0.2-1.5-0.5c-11.3-7.6-21.2-17-29.4-27.9c-0.9-1.2-0.7-2.9,0.5-3.8
	c1.2-0.9,2.9-0.7,3.9,0.5c7.8,10.4,17.2,19.4,28,26.6c1.3,0.8,1.6,2.6,0.7,3.8C110.8,72.7,110,73.1,109.1,73.1L109.1,73.1z"/>
<path class="st0" d="M158,92.2l-0.4,0c-9.1-1.4-18.1-3.8-26.6-7.2c-1.4-0.6-2.1-2.2-1.5-3.6c0.6-1.4,2.2-2.1,3.6-1.5
	c8.2,3.2,16.7,5.5,25.4,6.9c1.5,0.2,2.5,1.6,2.3,3.1C160.5,91.2,159.3,92.2,158,92.2L158,92.2z"/>
<path class="st0" d="M120.3,92.1c-8.6,0-15.6-7-15.6-15.6c0-8.6,7-15.6,15.6-15.6c8.6,0,15.6,7,15.6,15.6
	C135.9,85.1,128.9,92.1,120.3,92.1L120.3,92.1z M120.3,66.4c-5.6,0-10.1,4.5-10.1,10.1c0,5.6,4.5,10.1,10.1,10.1
	c5.6,0,10.1-4.5,10.1-10.1C130.4,70.9,125.9,66.4,120.3,66.4L120.3,66.4z"/>
<path class="st0" d="M153.4,137.5c-8.6,0-15.6-7-15.6-15.6c0-8.6,7-15.6,15.6-15.6c8.6,0,15.6,7,15.6,15.6
	C168.9,130.5,161.9,137.5,153.4,137.5L153.4,137.5z M153.4,111.8c-5.6,0-10.1,4.5-10.1,10.1c0,5.6,4.5,10.1,10.1,10.1
	c5.6,0,10.1-4.5,10.1-10.1C163.4,116.3,158.9,111.8,153.4,111.8L153.4,111.8z"/>
<path class="st0" d="M98.9,163c-34.5,0-62.6-28.1-62.6-62.6c0-34.5,28.1-62.6,62.6-62.6c34.5,0,62.6,28.1,62.6,62.6
	c0,3-0.3,6.3-0.9,9.9l-5.4-0.9c0.5-3.4,0.8-6.3,0.8-9.1c0-31.5-25.6-57.1-57.1-57.1c-31.5,0-57.1,25.6-57.1,57.1
	s25.6,57.1,57.1,57.1c19,0,36.7-9.4,47.4-25.2l4.6,3.1C139.1,152.6,119.7,163,98.9,163L98.9,163z"/>
<path class="st0" d="M70.1,128.5c-8.6,0-15.6-7-15.6-15.6c0-8.6,7-15.6,15.6-15.6c8.6,0,15.6,7,15.6,15.6
	C85.7,121.5,78.7,128.5,70.1,128.5L70.1,128.5z M70.1,102.9c-5.6,0-10.1,4.5-10.1,10.1c0,5.6,4.5,10.1,10.1,10.1
	c5.6,0,10.1-4.5,10.1-10.1C80.2,107.4,75.7,102.9,70.1,102.9L70.1,102.9z"/>
</svg>
