<?xml version="1.0" encoding="utf-8"?>
<!-- Generator: Adobe Illustrator 19.2.1, SVG Export Plug-In . SVG Version: 6.00 Build 0)  -->
<svg version="1.1" id="Layer_1" xmlns="http://www.w3.org/2000/svg" xmlns:xlink="http://www.w3.org/1999/xlink" x="0px" y="0px"
	 viewBox="0 0 200 200" style="enable-background:new 0 0 200 200;" xml:space="preserve">
<style type="text/css">
	.st0{fill:#FFFFFF;}
</style>
<path class="st0" d="M99.2,192.9C48,192.9,6.3,151.2,6.3,100C6.3,48.9,48,7.2,99.2,7.2c51.2,0,92.8,41.6,92.8,92.8
	C192,151.2,150.4,192.9,99.2,192.9L99.2,192.9z M99.2,11.3c-48.9,0-88.7,39.8-88.7,88.7c0,48.9,39.8,88.7,88.7,88.7
	s88.7-39.8,88.7-88.7C187.9,51.1,148.1,11.3,99.2,11.3L99.2,11.3z"/>
<path class="st0" d="M100.1,126.5c-0.7,0-1.4-0.3-1.8-0.8c-1.1-1.3-27.6-32.4-27.6-48.1c0-16.2,13.2-29.4,29.4-29.4
	c16.2,0,29.4,13.2,29.4,29.4c0,15.6-26.4,46.7-27.6,48.1C101.4,126.2,100.8,126.5,100.1,126.5L100.1,126.5z M100.1,53
	c-13.6,0-24.6,11-24.6,24.6c0,10.6,16.3,32.7,24.6,42.8c8.3-10,24.6-32.1,24.6-42.8C124.7,64,113.6,53,100.1,53L100.1,53z"/>
<path class="st0" d="M100.1,89.4c-6.5,0-11.8-5.3-11.8-11.8c0-6.5,5.3-11.8,11.8-11.8c6.5,0,11.8,5.3,11.8,11.8
	C111.8,84.1,106.6,89.4,100.1,89.4L100.1,89.4z M100.1,70.6c-3.9,0-7,3.1-7,7c0,3.9,3.1,7,7,7c3.9,0,7-3.1,7-7
	C107.1,73.8,103.9,70.6,100.1,70.6L100.1,70.6z"/>
<path class="st0" d="M154.8,151.8H45.4c-0.8,0-1.5-0.4-2-1.1c-0.4-0.7-0.5-1.5-0.2-2.2l16.2-40.1c0.4-0.9,1.2-1.5,2.2-1.5h14.9
	c1.3,0,2.4,1.1,2.4,2.4c0,1.3-1.1,2.4-2.4,2.4H63.2l-14.3,35.3h102.3l-14.3-35.3h-13.3c-1.3,0-2.4-1.1-2.4-2.4
	c0-1.3,1.1-2.4,2.4-2.4h14.9c1,0,1.8,0.6,2.2,1.5l16.2,40.1c0.3,0.7,0.2,1.6-0.2,2.2C156.3,151.5,155.6,151.8,154.8,151.8
	L154.8,151.8z"/>
</svg>
