<?xml version="1.0" encoding="utf-8"?>
<!-- Generator: Adobe Illustrator 19.2.1, SVG Export Plug-In . SVG Version: 6.00 Build 0)  -->
<svg version="1.1" id="Layer_1" xmlns="http://www.w3.org/2000/svg" xmlns:xlink="http://www.w3.org/1999/xlink" x="0px" y="0px"
	 viewBox="0 0 200 200" style="enable-background:new 0 0 200 200;" xml:space="preserve">
<style type="text/css">
	.st0{fill:#FFFFFF;}
</style>
<g>
	<path class="st0" d="M100,6.5c51.2,0,92.9,41.6,92.9,92.9c0,51.2-41.7,92.9-92.9,92.9S7.1,150.6,7.1,99.4
		C7.2,48.2,48.8,6.5,100,6.5L100,6.5z M100,183.4c46.3,0,84-37.7,84-84s-37.7-84-84-84c-46.4,0-84.1,37.7-84.1,84
		C16,145.7,53.7,183.4,100,183.4L100,183.4z"/>
	<g>
		<path class="st0" d="M104,74.3V36.6c0-2.2-1.7-4-3.9-4s-3.9,1.8-3.9,4v37.7c0,2.2,1.7,4,3.9,4C102.2,78.3,104,76.5,104,74.3
			L104,74.3z"/>
		<path class="st0" d="M152.7,99.2c0-22.6-14.2-42.8-35.4-50.2l-1.3-0.2c-1.7,0-3.2,1-3.7,2.7l0,0l-0.2,1.3c0,1.6,1,3.2,2.7,3.7
			c18,6.3,30.1,23.5,30.1,42.8c0,25-20.1,45.3-44.9,45.3s-44.9-20.3-44.9-45.3c0-19.2,12.1-36.4,30.1-42.8c1.7-0.6,2.6-2.1,2.6-3.7
			l-0.2-1.3l0,0c-0.5-1.6-2-2.7-3.7-2.7L82.7,49l0,0c-21.1,7.4-35.4,27.6-35.4,50.2c0,14.7,5.9,28,15.4,37.6s22.7,15.6,37.3,15.6
			s27.7-6,37.3-15.6C146.8,127.2,152.7,113.9,152.7,99.2L152.7,99.2z"/>
	</g>
</g>
</svg>
