<?xml version="1.0" encoding="utf-8"?>
<!-- Generator: Adobe Illustrator 19.2.1, SVG Export Plug-In . SVG Version: 6.00 Build 0)  -->
<svg version="1.1" id="Layer_1" xmlns="http://www.w3.org/2000/svg" xmlns:xlink="http://www.w3.org/1999/xlink" x="0px" y="0px"
	 viewBox="0 0 200 200" style="enable-background:new 0 0 200 200;" xml:space="preserve">
<style type="text/css">
	.st0{fill:#FFFFFF;}
</style>
<path class="st0" d="M11,99.4H7c0,51.3,41.6,92.9,92.9,92.9s92.9-41.6,92.9-92.9S151.1,6.5,99.9,6.5C48.6,6.5,7,48.1,7,99.4H11h4
	c0-23.4,9.4-44.6,24.9-60C55.2,24,76.4,14.6,99.8,14.6s44.6,9.5,59.9,24.8c15.4,15.4,24.9,36.5,24.9,60s-9.4,44.6-24.9,60
	c-15.3,15.4-36.5,24.8-59.9,24.8s-44.6-9.5-59.9-24.8C24.5,144,15,122.9,15,99.4L11,99.4L11,99.4z"/>
<path class="st0" d="M148.3,72.4c0,2.9-2.6,5.3-5.7,5.3H57.1c-3.2,0-5.7-2.4-5.7-5.3s2.6-5.3,5.7-5.3h85.4
	C145.7,67.1,148.3,69.5,148.3,72.4L148.3,72.4z"/>
<path class="st0" d="M148.3,72.4h-0.8c0,2.4-2.1,4.5-4.9,4.5H57.1c-2.8,0-4.9-2.1-4.9-4.5s2.1-4.5,4.9-4.5h85.4
	c2.8,0,4.9,2.1,4.9,4.5H148.3h0.8c0-3.4-3-6.1-6.5-6.1H57.1c-3.6,0-6.5,2.7-6.5,6.1s3,6.1,6.5,6.1h85.4c3.6,0,6.5-2.7,6.5-6.1H148.3
	L148.3,72.4z"/>
<path class="st0" d="M148.3,99.4c0,2.9-2.6,5.3-5.7,5.3H57.1c-3.2,0-5.7-2.4-5.7-5.3s2.6-5.3,5.7-5.3h85.4
	C145.7,94.1,148.3,96.5,148.3,99.4L148.3,99.4z"/>
<path class="st0" d="M148.3,99.4h-0.8c0,2.4-2.1,4.5-4.9,4.5H57.1c-2.8,0-4.9-2.1-4.9-4.5s2.1-4.5,4.9-4.5h85.4
	c2.8,0,4.9,2.1,4.9,4.5H148.3h0.8c0-3.4-3-6.1-6.5-6.1H57.1c-3.6,0-6.5,2.7-6.5,6.1s3,6.1,6.5,6.1h85.4c3.6,0,6.5-2.7,6.5-6.1H148.3
	L148.3,99.4z"/>
<path class="st0" d="M148.3,126.4c0,2.9-2.6,5.3-5.7,5.3H57.1c-3.2,0-5.7-2.4-5.7-5.3c0-2.9,2.6-5.3,5.7-5.3h85.4
	C145.7,121.1,148.3,123.5,148.3,126.4L148.3,126.4z"/>
<path class="st0" d="M148.3,126.4h-0.8c0,2.4-2.1,4.5-4.9,4.5H57.1c-2.8,0-4.9-2.1-4.9-4.5c0-2.4,2.1-4.5,4.9-4.5h85.4
	c2.8,0,4.9,2.1,4.9,4.5L148.3,126.4l0.8,0c0-3.4-3-6.1-6.5-6.1H57.1c-3.6,0-6.5,2.7-6.5,6.1c0,3.4,3,6.1,6.5,6.1h85.4
	c3.6,0,6.5-2.7,6.5-6.1H148.3L148.3,126.4z"/>
</svg>
