<?xml version="1.0" encoding="utf-8"?>
<!-- Generator: Adobe Illustrator 19.2.1, SVG Export Plug-In . SVG Version: 6.00 Build 0)  -->
<svg version="1.1" id="Layer_1" xmlns="http://www.w3.org/2000/svg" xmlns:xlink="http://www.w3.org/1999/xlink" x="0px" y="0px"
	 viewBox="0 0 200 200" style="enable-background:new 0 0 200 200;" xml:space="preserve">
<style type="text/css">
	.st0{fill:#FFFFFF;}
</style>
<path class="st0" d="M100.4,191.5c-50.6,0-91.7-41.2-91.7-91.7C8.7,49.1,49.8,8,100.4,8c50.6,0,91.8,41.2,91.8,91.8
	C192.2,150.3,151,191.5,100.4,191.5L100.4,191.5z M100.4,12.1c-48.3,0-87.7,39.3-87.7,87.7c0,48.3,39.3,87.7,87.7,87.7
	s87.7-39.3,87.7-87.7C188.1,51.4,148.8,12.1,100.4,12.1L100.4,12.1z"/>
<path class="st0" d="M88.4,146.2c-27.5,0-49.9-22.4-49.9-49.9c0-27.5,22.4-49.9,49.9-49.9c25.7,0,47,19.2,49.7,44.7
	c0.1,1.2-0.7,2.3-1.9,2.4c-1.2,0.1-2.3-0.7-2.4-1.9c-2.4-23.3-21.9-40.8-45.3-40.8c-25.1,0-45.6,20.4-45.6,45.6
	c0,25.1,20.4,45.6,45.6,45.6c1.2,0,2.2,1,2.2,2.2S89.6,146.2,88.4,146.2L88.4,146.2z"/>
<path class="st0" d="M88.4,146.2c-16.4,0-29.8-22.4-29.8-49.9c0-27.5,13.4-49.9,29.8-49.9c15,0,27.7,18.7,29.5,43.6
	c0.1,1.2-0.8,2.2-2,2.3c-1.2,0.1-2.2-0.8-2.3-2c-1.7-22.6-12.5-39.6-25.2-39.6c-14,0-25.4,20.4-25.4,45.6
	c0,25.1,11.4,45.6,25.4,45.6c4.9,0,9.7-2.6,13.8-7.4c0.8-0.9,2.2-1,3.1-0.2c0.9,0.8,1,2.2,0.2,3.1
	C100.5,143.1,94.5,146.2,88.4,146.2L88.4,146.2z"/>
<path class="st0" d="M88.4,146.2c-1.2,0-2.2-1-2.2-2.2V48.5c0-1.2,1-2.2,2.2-2.2c26.6,0,48.5,20.8,49.9,47.3
	c0.1,1.2-0.9,2.2-2.1,2.3c-1.2,0.1-2.2-0.9-2.3-2.1c-1.2-23.5-20.1-42-43.3-43.1v91c6-0.3,11.8-1.7,17.2-4.2c1.1-0.5,2.4,0,2.9,1
	c0.5,1.1,0,2.4-1,2.9C102.9,144.6,95.8,146.2,88.4,146.2L88.4,146.2z"/>
<path class="st0" d="M94.4,115.3H43.7c-0.9,0-1.7-0.6-2-1.4c-2.1-5.7-3.2-11.6-3.2-17.6c0-6,1.1-11.9,3.3-17.6
	c0.3-0.8,1.1-1.4,2-1.4H133c0.9,0,1.7,0.6,2,1.4c1.8,4.9,2.9,9.9,3.2,14.9c0.1,1.2-0.9,2.2-2,2.3c-1.2,0.1-2.2-0.9-2.3-2
	c-0.2-4.1-1-8.2-2.4-12.2H45.3c-1.6,4.8-2.5,9.7-2.5,14.7c0,5,0.8,9.9,2.5,14.7h49.1c1.2,0,2.2,1,2.2,2.2
	C96.5,114.3,95.6,115.3,94.4,115.3L94.4,115.3z"/>
<path class="st0" d="M121.3,144.5c-15.7,0-28.4-12.8-28.5-28.4c0-15.7,12.8-28.5,28.5-28.5c15.7,0,28.5,12.8,28.5,28.5
	C149.8,131.8,137,144.5,121.3,144.5L121.3,144.5z M121.3,92c-13.3,0-24.1,10.8-24.1,24.1c0,13.3,10.8,24.1,24.1,24.1
	c13.3,0,24.1-10.8,24.1-24.1C145.5,102.8,134.6,92,121.3,92L121.3,92z"/>
<path class="st0" d="M156.1,154.2c-0.6,0-1.1-0.2-1.5-0.6l-16.3-16.3c-0.8-0.8-0.8-2.2,0-3.1c0.8-0.8,2.2-0.8,3.1,0l16.3,16.3
	c0.8,0.8,0.8,2.2,0,3.1C157.3,154,156.7,154.2,156.1,154.2L156.1,154.2z"/>
</svg>
