<?xml version="1.0" encoding="utf-8"?>
<!-- Generator: Adobe Illustrator 19.2.1, SVG Export Plug-In . SVG Version: 6.00 Build 0)  -->
<svg version="1.1" id="Layer_1" xmlns="http://www.w3.org/2000/svg" xmlns:xlink="http://www.w3.org/1999/xlink" x="0px" y="0px"
	 viewBox="0 0 100 100" style="enable-background:new 0 0 100 100;" xml:space="preserve">
<style type="text/css">
	.st0{fill:#FFFFFF;}
</style>
<g>
	<path class="st0" d="M50,2.7C23.9,2.7,2.7,23.9,2.7,50c0,26.1,21.2,47.3,47.3,47.3S97.3,76.1,97.3,50C97.3,23.9,76.1,2.7,50,2.7
		 M50,99.5C22.7,99.5,0.5,77.3,0.5,50C0.5,22.7,22.7,0.5,50,0.5S99.5,22.7,99.5,50C99.5,77.3,77.3,99.5,50,99.5"/>
	<path class="st0" d="M65,47.8l0.1,4.4c0,0.7-0.4,1.8-0.9,2.3L39.4,79.2c-0.2,0.2-0.4,0.2-0.5,0.2s-0.3,0-0.5-0.2L21.1,61.9
		c-0.3-0.3-0.3-0.7,0-0.9l24.8-24.8c0.5-0.5,1.5-0.9,2.2-0.9l15.8,0.5c0.4,0,0.7,0.4,0.7,0.7l0.2,5.5c0.5-0.1,1.1-0.2,1.7-0.3
		c0.3-0.1,0.5-0.1,0.7-0.2L67,36.4c0-1.7-1.4-3-3.1-3.1l-15.7-0.5c-1.3,0-3.1,0.7-4.1,1.6L19.4,59.2c-1.2,1.2-1.2,3.2,0,4.4L36.8,81
		c0.6,0.6,1.4,0.9,2.2,0.9s1.6-0.3,2.2-0.9l24.8-24.8c1-1,1.7-2.7,1.6-4.1l-0.1-4.7C66.6,47.6,65.7,47.7,65,47.8"/>
	<path class="st0" d="M55.1,41.7c0.6,0,1.2,0.2,1.6,0.4c0.4,0,1.1,0.1,2,0.1c0.4,0,0.9,0,1.5,0c-1-1.8-2.9-3-5.1-3
		c-3.2,0-5.7,2.6-5.7,5.7c0,3.2,2.6,5.7,5.7,5.7c2,0,3.8-1,4.8-2.6c-0.5,0-1,0-1.5,0c-0.7,0-1.3-0.1-1.8-0.1
		c-0.4,0.2-0.9,0.3-1.5,0.3c-1.8,0-3.3-1.5-3.3-3.3C51.8,43.1,53.3,41.7,55.1,41.7"/>
	<path class="st0" d="M79.6,23.3c-1.6-2.4-3.9-4.1-6.7-4.8C67.2,17,60,19.8,56.6,29.2c-0.2,0.6,0.1,1.3,0.7,1.6
		c0.6,0.2,1.3-0.1,1.6-0.7c3.1-8.5,9.1-10.3,13.4-9.2c3.9,1,7.7,5,6.7,11.2c-1,5.9-4.9,9.7-11.7,11.2c-0.2,0-0.4,0.1-0.5,0.1
		c-0.6,0.1-1.3,0.2-1.9,0.3c-1.5,0.2-2.9,0.3-4.1,0.3c-0.4,0-0.8,0-1.2,0c-0.5,0-0.9,0-1.3-0.1c-1.4-0.1-2.3-0.2-2.3-0.2
		c-0.7-0.1-1.3,0.4-1.4,1c-0.1,0.7,0.4,1.3,1,1.4c0.1,0,1.1,0.2,2.6,0.2c0.4,0,0.8,0,1.3,0.1c0.3,0,0.6,0,1,0c0.1,0,0.2,0,0.3,0
		c1.3,0,2.8-0.1,4.3-0.3c0.7-0.1,1.5-0.2,2.2-0.4c0.1,0,0.1,0,0.2,0c8-1.7,12.8-6.2,14-13.3C81.9,29.1,81.3,25.9,79.6,23.3"/>
</g>
</svg>
