<?xml version="1.0" encoding="utf-8"?>
<!-- Generator: Adobe Illustrator 15.1.0, SVG Export Plug-In  -->
<!DOCTYPE svg PUBLIC "-//W3C//DTD SVG 1.1//EN" "http://www.w3.org/Graphics/SVG/1.1/DTD/svg11.dtd" [
	<!ENTITY ns_flows "http://ns.adobe.com/Flows/1.0/">
]>
<svg version="1.1"
	 xmlns="http://www.w3.org/2000/svg" xmlns:xlink="http://www.w3.org/1999/xlink" xmlns:a="http://ns.adobe.com/AdobeSVGViewerExtensions/3.0/"
	 x="0px" y="0px" width="200px" height="200px" viewBox="0 0 200 200" enable-background="new 0 0 200 200" xml:space="preserve">
<defs>
</defs>
<rect display="none" fill="#0092BF" width="200" height="200"/>
<path fill="#FFFFFF" d="M99.3,195c-52.2,0-94.7-42.5-94.7-94.7c0-52.2,42.5-94.7,94.7-94.7c52.2,0,94.7,42.5,94.7,94.7
	C194,152.5,151.5,195,99.3,195L99.3,195z M99.3,9.9c-49.8,0-90.4,40.5-90.4,90.4c0,49.9,40.6,90.5,90.5,90.5s90.5-40.6,90.5-90.5
	C189.8,50.4,149.2,9.9,99.3,9.9L99.3,9.9z"/>
<path fill="#FFFFFF" d="M130.969,101.45c-0.6,0-1.1-0.2-1.6-0.7l-19-19.5c-0.8-0.899-0.8-2.3,0-3.1c0.9-0.8,2.3-0.8,3.1,0l19,19.5
	c0.801,0.899,0.801,2.3,0,3.1C132.069,101.25,131.469,101.45,130.969,101.45L130.969,101.45z"/>
<path fill="#FFFFFF" d="M131.569,102.45c-0.601,0-1.101-0.2-1.601-0.7c-0.8-0.899-0.8-2.3,0-3.1l36.101-35.1c2.2-2.2,2.3-5.7,0.1-8
	l-10.5-10.8c-1-1.1-2.5-1.7-4-1.7s-2.899,0.5-4,1.6l-36.1,35.1c-0.9,0.8-2.3,0.8-3.101,0c-0.8-0.899-0.8-2.3,0-3.1l36.101-35.1
	c1.899-1.9,4.399-2.9,7.1-2.8c2.7,0,5.2,1.1,7,3l10.5,10.8c3.8,4,3.8,10.3-0.2,14.2l-36.1,35.101
	C132.669,102.25,132.169,102.45,131.569,102.45L131.569,102.45z"/>
<path fill="#FFFFFF" d="M99.669,112.05c-0.6,0-1.199-0.199-1.6-0.699c-0.6-0.601-0.801-1.4-0.5-2.2l9.7-30.8
	c0.399-1.2,1.6-1.801,2.8-1.4s1.8,1.6,1.399,2.7l-8.5,26.899l27.2-7.699c1.2-0.301,2.4,0.3,2.7,1.5c0.3,1.199-0.3,2.399-1.5,2.699
	l-31.101,8.801C100.069,112.05,99.869,112.05,99.669,112.05L99.669,112.05z"/>
<path fill="#FFFFFF" d="M113.169,106.45c-0.6,0-1.1-0.2-1.6-0.6l-7.5-7.5c-0.9-0.9-0.9-2.2,0-3.101c0.899-0.899,2.2-0.899,3.1,0
	l7.5,7.5c0.9,0.9,0.9,2.2,0,3.101C114.27,106.25,113.669,106.45,113.169,106.45L113.169,106.45z"/>
<path fill="#FFFFFF" d="M86.035,161.646c-0.211-0.056-0.414-0.154-0.59-0.291l-55.498-42.793c-0.418-0.323-0.659-0.823-0.651-1.349
	c0,0,0.288-11.214,0.509-11.5l14.579-18.855c0.299-0.388,0.754-0.624,1.243-0.648l7.344-0.351c0.384-0.018,0.763,0.097,1.072,0.325
	l55.907,41.255c0.737,0.542,0.899,1.578,0.365,2.321l-22.493,31.246c-0.265,0.367-0.667,0.613-1.116,0.678
	C86.481,161.718,86.252,161.704,86.035,161.646z M32.651,116.426l53.466,41.226l20.519-28.503L52.536,89.228l-5.979,0.285
	l-13.766,17.805L32.651,116.426z"/>
<path fill="#FFFFFF" d="M53.354,107.407c-2.038,2.906-6.148,3.551-9.164,1.436c-3.015-2.113-3.811-6.197-1.772-9.104
	c2.036-2.905,6.148-3.549,9.164-1.435C54.596,100.417,55.391,104.502,53.354,107.407z M44.381,101.115
	c-1.306,1.863-0.797,4.48,1.136,5.836c1.932,1.354,4.567,0.941,5.874-0.921c1.305-1.862,0.795-4.479-1.137-5.834
	C48.321,98.842,45.686,99.254,44.381,101.115z"/>
</svg>
