<?xml version="1.0" encoding="utf-8"?>
<!-- Generator: Adobe Illustrator 15.1.0, SVG Export Plug-In . SVG Version: 6.00 Build 0)  -->
<!DOCTYPE svg PUBLIC "-//W3C//DTD SVG 1.1//EN" "http://www.w3.org/Graphics/SVG/1.1/DTD/svg11.dtd">
<svg version="1.1" id="Capa_1" xmlns="http://www.w3.org/2000/svg" xmlns:xlink="http://www.w3.org/1999/xlink" x="0px" y="0px"
	 width="83.4px" height="83.4px" viewBox="0 0 83.4 83.4" enable-background="new 0 0 83.4 83.4" xml:space="preserve">
<g>
	<g>
		<path fill="#595959" d="M57.301,25.6c0-0.601,0-1.2-0.101-1.7l-8.8,3.8h-14l-8.3-3.4C26.1,24.7,26,25.2,26,25.6
			c0,8.6,7,15.6,15.601,15.6C50.301,41.2,57.301,34.2,57.301,25.6z"/>
		<path fill="#595959" d="M13.9,62.2v16.4l1.2,0.301c2.399,0.8,4.8,1.399,7.1,1.899V53.9c0-4.801,2.8-9,6.8-11
			C20.3,45.1,13.9,52.9,13.9,62.2z"/>
		<path fill="#595959" d="M36.8,42.301l-1.3,2.5C35.2,45.401,35.1,45.901,35.1,46.5v8.2c0,2.2,1.8,4,4,4h5.2c2.199,0,4-1.8,4-4v-8.2
			c0-0.6-0.101-1.199-0.399-1.699l-1.301-2.5H36.8z"/>
		<path fill="#595959" d="M52.5,46.7v8c0,4.5-3.699,8.2-8.199,8.2h-5.2c-4.5,0-8.2-3.7-8.2-8.2v-8c-2.7,1.3-4.5,4.101-4.5,7.2v28
			c5.6,1.1,10.8,1.5,15.3,1.5s9.7-0.5,15.3-1.5v-28C57,50.801,55.2,48,52.5,46.7z"/>
		<path fill="#595959" d="M54.4,42.9c4.1,2,6.899,6.199,6.899,11V81c2.3-0.5,4.699-1.199,7.101-1.899l1.1-0.399v-16.4
			C69.5,52.9,63.1,45.1,54.4,42.9z"/>
		<path fill="#595959" d="M41.7,12.2c2.601,0,3.899-2.3,3.899-5V0H41.7h-3.9V7.1C37.8,9.9,39.1,12.2,41.7,12.2z"/>
		<path fill="#595959" d="M34.8,24.7h13.7l10.4-4.2l0.899-3l-1-1C58.2,8.1,53.7,2.3,47.5,0.1v7.1c0,4-2.399,7.4-5.8,7.4
			s-5.8-3.301-5.8-7.4V0.1C29.7,2.3,25.2,8.1,24.5,16.5l-1,1l0.9,3L34.8,24.7z"/>
	</g>
</g>
</svg>
