<?xml version="1.0" encoding="iso-8859-1"?>
<!-- Generator: Adobe Illustrator 16.0.0, SVG Export Plug-In . SVG Version: 6.00 Build 0)  -->
<!DOCTYPE svg PUBLIC "-//W3C//DTD SVG 1.1//EN" "http://www.w3.org/Graphics/SVG/1.1/DTD/svg11.dtd">
<svg version="1.1" id="Capa_1" xmlns="http://www.w3.org/2000/svg" xmlns:xlink="http://www.w3.org/1999/xlink" x="0px" y="0px"
	 width="31.816px" height="31.816px" viewBox="0 0 31.816 31.816" style="enable-background:new 0 0 31.816 31.816;"
	 xml:space="preserve">
<g>
	<path d="M27.812,25.265c-0.013-0.017-0.273-0.372-0.737-0.666c-0.503-0.313-1.026-0.435-1.565-0.354
		c-0.16-0.52-0.494-0.942-0.994-1.259c-0.464-0.293-0.897-0.378-0.918-0.382l-0.054-0.012l-0.172,0.274
		c-0.158-0.062-0.276-0.069-0.325,0.009c-0.253,0.4-1.788,2.836-1.788,2.836l2.089,1.316c0.03,0.109,0.111,0.219,0.229,0.292
		c0.118,0.075,0.251,0.103,0.362,0.083l2.035,1.283c0,0,1.701-2.696,1.789-2.838c0.039-0.062-0.006-0.146-0.104-0.247l0.188-0.296
		L27.812,25.265z M22.574,25.814c-0.237-0.148-0.471-0.246-0.692-0.285l1.736-2.756c0.126,0.03,0.463,0.129,0.812,0.35
		c0.459,0.289,0.766,0.678,0.92,1.15l-1.037,1.643l0.133-0.033l-0.689,1.096C23.626,26.795,23.172,26.192,22.574,25.814z
		 M25.912,28.071c-0.145-0.198-0.337-0.376-0.582-0.53c-0.6-0.377-1.312-0.506-1.53-0.537l0.692-1.094l0.021,0.137l1.036-1.646
		c0.492-0.065,0.978,0.044,1.437,0.333c0.349,0.221,0.58,0.48,0.662,0.581L25.912,28.071z M15.337,24.812h-0.002l0.024,0.159
		l0.952,5.949l2.338-3.784l-3.401-2.87L15.337,24.812z M18.402,27.172l-1.971,3.192l-0.055-0.329l0.169-0.029l-0.019-0.104
		l-0.168,0.029l-0.025-0.154l0.289-0.047l-0.018-0.107l-0.289,0.049L16.3,29.556l0.197-0.033l-0.019-0.104l-0.196,0.033
		l-0.024-0.158l0.288-0.045l-0.019-0.105l-0.287,0.044l-0.021-0.115l0.198-0.03L16.4,28.936l-0.196,0.031l-0.022-0.146l0.286-0.048
		l-0.016-0.104l-0.289,0.047l-0.021-0.113l0.197-0.032l-0.02-0.106l-0.192,0.031l-0.024-0.154l0.289-0.049l-0.019-0.104l-0.29,0.047
		l-0.02-0.112l0.197-0.033l-0.019-0.104l-0.196,0.033l-0.021-0.144h0.004l-0.014-0.08l0.215-0.032l-0.017-0.106l-0.229,0.036
		l-0.019-0.112l0.138-0.023l-0.018-0.104l-0.137,0.022l-0.023-0.157l0.227-0.037l-0.018-0.105l-0.227,0.037l-0.02-0.114l0.133-0.021
		l-0.017-0.108l-0.135,0.022l-0.025-0.154l0.254-0.039l-0.018-0.105l-0.254,0.04l-0.018-0.112l0.16-0.025l-0.017-0.104l-0.162,0.024
		l-0.025-0.156l0.253-0.041l-0.018-0.105l-0.252,0.041l-0.02-0.114l0.159-0.023l-0.016-0.105l-0.161,0.024l-0.022-0.145l0.252-0.042
		l-0.019-0.104l-0.251,0.041l-0.018-0.115l0.157-0.024l-0.018-0.104l-0.157,0.026l-0.025-0.157l0.25-0.041l-0.018-0.104l-0.25,0.04
		l-0.018-0.113l0.157-0.025l-0.019-0.105l-0.156,0.025l-0.054-0.33L18.402,27.172z M17.688,27.322l-1.439-1.215l0.447,2.82
		L17.688,27.322z M17.439,27.361l-0.638,1.032l-0.29-1.813L17.439,27.361z M28.646,19.17c0.024-0.035,0.022-0.084-0.008-0.111
		c-0.029-0.027-0.076-0.027-0.113,0l-0.002-0.002l-0.235,0.247l-0.123,0.13l-0.017,0.018l0.002,0.004
		c-0.021,0.034-0.018,0.078,0.013,0.106c0.026,0.026,0.071,0.026,0.106,0.004l1.91,1.823l0.075-0.079l0.132,0.125l0.215-0.228
		l-0.131-0.125l0.072-0.074l0.161-0.172l0.073-0.078l-1.147-0.965l-0.063,0.068l0.955,0.869l-0.112,0.121L28.646,19.17z
		 M30.18,21.256L28.337,19.5l0.246-0.261l1.842,1.755L30.18,21.256z M30.113,21.03l-0.643-0.614l0.12-0.127l0.644,0.615
		L30.113,21.03z M28.094,19.397l0.377-0.396l-0.768-0.574l-0.021,0.019l-0.143-0.082l-0.029,0.031l-0.181-0.132l-0.039,0.042
		l0.146,0.166l-0.033,0.036l0.088,0.119l-0.03,0.024L28.094,19.397z M27.71,18.547l0.619,0.469l-0.231,0.244l-0.509-0.598
		L27.71,18.547z M15.029,20.774c-0.217-0.339-0.67-0.438-1.009-0.222c-0.34,0.217-0.438,0.667-0.223,1.009
		c0.217,0.339,0.671,0.438,1.009,0.224C15.146,21.567,15.245,21.114,15.029,20.774z M14.603,21.463
		c-0.162,0.104-0.381,0.059-0.483-0.104c-0.104-0.164-0.057-0.38,0.105-0.485c0.163-0.104,0.382-0.057,0.485,0.107
		C14.813,21.143,14.766,21.359,14.603,21.463z M13.908,20.377c0.339-0.217,0.438-0.672,0.222-1.011
		c-0.216-0.338-0.669-0.438-1.008-0.222c-0.34,0.216-0.439,0.668-0.224,1.008C13.115,20.492,13.569,20.594,13.908,20.377z
		 M13.325,19.463c0.164-0.103,0.383-0.056,0.484,0.107c0.104,0.164,0.058,0.381-0.105,0.485s-0.381,0.056-0.486-0.107
		C13.115,19.787,13.163,19.567,13.325,19.463z M16.938,20.248l-1.866-0.483l0.005-0.002l0.379-1.83l-0.725,0.46l-0.383,1.833
		l1.82,0.427L16.938,20.248z M14.885,20.131c-0.088,0.057-0.202,0.031-0.257-0.055c-0.058-0.091-0.031-0.203,0.056-0.26
		c0.088-0.055,0.202-0.031,0.258,0.057C14.997,19.963,14.972,20.076,14.885,20.131z M19.367,25.461
		c0.14-0.018,0.273-0.068,0.396-0.157c0.381-0.275,0.467-0.813,0.189-1.195c-0.278-0.382-0.814-0.468-1.197-0.19
		s-0.466,0.814-0.189,1.196c0.062,0.083,0.133,0.149,0.209,0.204l-0.043,0.174l0.141,0.034l-0.216,0.863l0.339,0.084l0.215-0.862
		l0.111,0.027L19.367,25.461z M18.855,24.903c-0.16-0.223-0.11-0.534,0.11-0.696c0.224-0.16,0.537-0.11,0.698,0.11
		c0.161,0.222,0.109,0.535-0.111,0.697C19.33,25.176,19.02,25.127,18.855,24.903z M20.839,26.486c-0.868,0-1.577,0.708-1.577,1.577
		c0,0.871,0.709,1.579,1.577,1.579c0.87,0,1.577-0.708,1.577-1.579C22.416,27.194,21.709,26.486,20.839,26.486z M21.883,27.096
		c-0.154,0.07-0.496,0.244-0.865,0.521c-0.229-0.344,0.107-0.786,0.228-0.921C21.491,26.771,21.71,26.912,21.883,27.096z
		 M20.839,26.638c0.097,0,0.188,0.01,0.28,0.026c-0.154,0.189-0.455,0.644-0.194,1.021c-0.089,0.066-0.179,0.145-0.267,0.222
		c-0.021,0.021-0.045,0.044-0.065,0.062c-0.353-0.438-0.567-0.87-0.639-1.021C20.198,26.754,20.505,26.638,20.839,26.638z
		 M19.412,28.063c0-0.408,0.175-0.776,0.451-1.039c0.087,0.181,0.304,0.603,0.646,1.022c-0.083,0.08-0.161,0.156-0.233,0.23
		c-0.297-0.312-0.68-0.238-0.858-0.18C19.415,28.086,19.412,28.078,19.412,28.063z M19.695,28.916
		c-0.146-0.199-0.244-0.438-0.272-0.695c0.14-0.053,0.499-0.145,0.771,0.144C19.956,28.606,19.783,28.809,19.695,28.916z
		 M20.4,29.418c-0.246-0.078-0.463-0.226-0.631-0.414c0.076-0.096,0.254-0.301,0.496-0.555C20.498,28.785,20.438,29.234,20.4,29.418
		z M20.839,29.489c-0.112,0-0.222-0.014-0.327-0.038c0.045-0.201,0.113-0.705-0.164-1.082c0.073-0.076,0.152-0.152,0.235-0.23
		c0.028,0.035,0.062,0.07,0.093,0.105c0.436,0.479,0.848,0.83,1.01,0.967C21.445,29.385,21.156,29.489,20.839,29.489z
		 M22.266,28.063c0,0.428-0.189,0.812-0.49,1.073c-0.145-0.12-0.567-0.479-1.014-0.971c-0.033-0.035-0.064-0.071-0.096-0.107
		c0.021-0.021,0.045-0.042,0.068-0.064c0.086-0.078,0.176-0.15,0.263-0.22c0.217,0.224,0.565,0.278,0.854,0.278
		c0.17,0,0.321-0.02,0.408-0.033C22.264,28.035,22.266,28.049,22.266,28.063z M22.255,27.904c-0.211,0.034-0.854,0.108-1.166-0.199
		c0.388-0.283,0.741-0.459,0.87-0.52C22.119,27.389,22.225,27.635,22.255,27.904z M28.829,24.137
		c0.19,0.361,0.394,0.539,0.394,0.539v0.109c0,0,0.064,0.004,0.086,0c-0.004,0.295-0.183,0.321-0.183,0.321v0.138h-0.123v0.055
		h-0.065l-0.049,0.152h-0.186v0.155h1.436v-0.155h-0.152l-0.049-0.152h-0.063v-0.055H29.75v-0.138c0,0-0.18-0.026-0.184-0.321
		c0.021,0.004,0.088,0,0.088,0v-0.108c0,0,0.215-0.188,0.41-0.573c0.02,0.001,0.045,0.001,0.078,0.001
		c0.15,0,0.412-0.021,0.575-0.169c0.099-0.086,0.148-0.201,0.148-0.342c0.003-0.156,0.026-0.332,0.05-0.502
		c0.059-0.389,0.107-0.76-0.164-0.834c-0.322-0.086-0.548,0.285-0.604,0.39h-0.709h-0.01h-0.744
		c-0.078-0.133-0.289-0.431-0.58-0.353c-0.273,0.074-0.221,0.443-0.166,0.834c0.023,0.168,0.051,0.345,0.052,0.5
		c0.001,0.142,0.052,0.254,0.147,0.344c0.164,0.146,0.426,0.17,0.575,0.17C28.779,24.142,28.823,24.138,28.829,24.137z
		 M30.361,23.084c-0.112-0.08-0.172-0.096-0.207-0.283c0.084,0,0.13,0,0.13,0v-0.094c0.05-0.09,0.225-0.363,0.431-0.31
		c0.148,0.042,0.104,0.349,0.061,0.674c-0.023,0.175-0.051,0.353-0.053,0.521c0,0.099-0.033,0.177-0.099,0.234
		c-0.133,0.118-0.364,0.135-0.49,0.133C30.234,23.727,30.324,23.437,30.361,23.084z M28.139,23.627
		c-0.002-0.168-0.025-0.348-0.052-0.521c-0.047-0.324-0.092-0.632,0.058-0.672c0.248-0.065,0.442,0.323,0.447,0.336v0.028
		c0,0,0.045,0,0.131,0c-0.037,0.188-0.095,0.203-0.209,0.283c0.041,0.369,0.137,0.672,0.245,0.908
		c-0.114,0.006-0.377-0.002-0.521-0.131C28.172,23.803,28.139,23.727,28.139,23.627z M29.332,27.91l-0.001,0.017l0.044,0.086
		l-0.089-0.015l-0.017-0.004c-0.08,0-0.261,0.207-0.34,0.389c-0.09,0.214-0.064,0.397,0.067,0.539
		c0.009,0.011,0.017,0.017,0.024,0.022l-0.092,0.087l-0.104-0.102l-0.062,0.062l0.104,0.098l-0.676,0.654l0.283-0.103l0.478-0.472
		l0.073,0.072l0.062-0.062l-0.075-0.074l0.102-0.099c0.087,0.051,0.188,0.072,0.303,0.072c0.252,0,0.516-0.125,0.566-0.209
		c0.019-0.025,0.018-0.048,0.015-0.062l-0.009-0.068l0.062,0.03l0.028,0.006c0.055,0,0.131,0,0.716-1.126
		c0.279-0.542,0.544-1.093,0.547-1.099l0.083-0.175l-0.163,0.101C30.816,26.752,29.35,27.657,29.332,27.91z M30.081,28.664
		l-0.224-0.11l0.026,0.271c-0.043,0.045-0.25,0.151-0.467,0.151c-0.082,0-0.153-0.019-0.217-0.046l0.003-0.004l1.076-1.185
		l-0.021-0.013l-1.138,1.118l-0.02,0.018c-0.008-0.008-0.017-0.013-0.023-0.022c-0.078-0.078-0.104-0.182-0.081-0.301
		c0.042-0.205,0.222-0.396,0.274-0.431l0.305,0.05l-0.131-0.255c0.051-0.125,0.611-0.526,1.269-0.948v0.233l0.198-0.022
		C30.544,27.91,30.189,28.565,30.081,28.664z M30.957,27.086l-0.162,0.021v-0.199c0.118-0.078,0.241-0.152,0.365-0.229
		C31.094,26.816,31.023,26.953,30.957,27.086z M23.266,29.229c0,0.011-0.002,0.021-0.002,0.032c0,0.012,0.002,0.022,0.002,0.032
		h-0.078v-0.064H23.266z M23.816,28.707c-0.012,0-0.021,0.002-0.033,0.004v-0.078h0.066v0.078
		C23.837,28.709,23.828,28.707,23.816,28.707z M24.366,29.229h0.077v0.064h-0.077c0-0.01,0.002-0.021,0.002-0.032
		S24.366,29.24,24.366,29.229z M23.814,29.814c0.014,0,0.021-0.001,0.033-0.002v0.077h-0.065v-0.077
		C23.794,29.813,23.803,29.814,23.814,29.814z M23.838,29.229h0.312v0.064h-0.357V28.77h0.046L23.838,29.229L23.838,29.229z
		 M24.923,28.502c0,0.168-0.089,0.312-0.22,0.395c-0.11-0.289-0.361-0.508-0.67-0.57c0.07-0.169,0.234-0.285,0.427-0.285
		C24.717,28.041,24.923,28.248,24.923,28.502z M22.925,28.896c-0.132-0.081-0.22-0.227-0.22-0.395c0-0.256,0.207-0.463,0.462-0.463
		c0.192,0,0.358,0.116,0.429,0.284C23.287,28.387,23.034,28.606,22.925,28.896z M23.814,28.351c-0.502,0-0.91,0.407-0.91,0.91
		c0,0.301,0.146,0.565,0.367,0.731l-0.146,0.319h0.138l0.11-0.254c0.131,0.069,0.28,0.112,0.44,0.112c0.15,0,0.293-0.039,0.42-0.104
		l0.105,0.243h0.137l-0.141-0.306c0.236-0.166,0.391-0.438,0.391-0.748C24.729,28.76,24.316,28.351,23.814,28.351z M23.802,29.922
		c-0.063,0-0.127-0.01-0.185-0.026c-0.271-0.084-0.469-0.336-0.469-0.634c0-0.365,0.301-0.664,0.666-0.664
		c0.25,0,0.472,0.142,0.582,0.348c0.047,0.092,0.074,0.196,0.074,0.307C24.473,29.621,24.173,29.922,23.802,29.922z M10.187,28.701
		c0,0.012-0.001,0.021-0.001,0.033c0,0.01,0.001,0.021,0.001,0.033h-0.076v-0.066H10.187z M10.74,28.182
		c-0.012,0-0.022,0.001-0.033,0.001v-0.077h0.064v0.077C10.762,28.183,10.75,28.182,10.74,28.182z M11.291,28.701h0.076v0.066
		h-0.076c0-0.014,0.001-0.023,0.001-0.033C11.292,28.723,11.291,28.711,11.291,28.701z M10.74,29.287
		c0.011,0,0.021-0.002,0.031-0.002v0.077h-0.064v-0.077C10.717,29.285,10.728,29.287,10.74,29.287z M10.763,28.701h0.312v0.066
		h-0.358v-0.526h0.046V28.701z M11.847,27.974c0,0.167-0.088,0.312-0.22,0.394c-0.109-0.289-0.361-0.508-0.671-0.572
		c0.07-0.166,0.236-0.282,0.428-0.282C11.64,27.512,11.847,27.72,11.847,27.974z M9.85,28.369c-0.132-0.082-0.221-0.228-0.221-0.395
		c0-0.255,0.207-0.463,0.463-0.463c0.193,0,0.358,0.117,0.426,0.283C10.212,27.86,9.959,28.08,9.85,28.369z M10.74,27.823
		c-0.505,0-0.912,0.408-0.912,0.911c0,0.299,0.146,0.564,0.368,0.73l-0.146,0.318h0.137l0.111-0.254
		c0.131,0.071,0.281,0.113,0.441,0.113c0.151,0,0.294-0.036,0.42-0.104l0.106,0.242h0.136l-0.141-0.306
		c0.235-0.164,0.39-0.438,0.39-0.745C11.651,28.231,11.243,27.823,10.74,27.823z M10.726,29.394c-0.062,0-0.126-0.011-0.185-0.024
		c-0.271-0.086-0.466-0.338-0.466-0.635c0-0.365,0.298-0.666,0.664-0.666c0.252,0,0.471,0.143,0.584,0.35
		c0.047,0.092,0.073,0.193,0.073,0.307C11.397,29.092,11.096,29.394,10.726,29.394z M26.391,19.133l-0.147,0.164h-0.002
		l-1.353,1.474c-0.012-0.146-0.076-0.286-0.188-0.394c-0.242-0.223-0.615-0.205-0.839,0.035c-0.221,0.241-0.203,0.614,0.035,0.838
		c0.221,0.201,0.549,0.205,0.772,0.023l0.005,0.003l1.403-1.524l1.415,0.892l-0.997,1.083c-0.011-0.146-0.074-0.285-0.188-0.393
		c-0.24-0.221-0.617-0.205-0.836,0.035c-0.223,0.24-0.207,0.616,0.033,0.838c0.221,0.2,0.551,0.205,0.773,0.023l0.007,0.002
		l1.573-1.715l0.011,0.007l0.269-0.297L26.391,19.133z M27.566,20.562l-1.416-0.891l0.134-0.145l1.416,0.889L27.566,20.562z
		 M14.117,28.729l-0.852,0.927c-0.008-0.091-0.049-0.18-0.12-0.245c-0.15-0.141-0.388-0.131-0.525,0.021
		c-0.141,0.148-0.13,0.387,0.021,0.525c0.138,0.127,0.345,0.129,0.485,0.016l0.004,0.003l0.882-0.96l0.891,0.562l-0.628,0.682
		c-0.005-0.092-0.046-0.182-0.117-0.247c-0.15-0.14-0.389-0.13-0.526,0.021c-0.14,0.151-0.129,0.389,0.021,0.526
		c0.139,0.127,0.347,0.129,0.487,0.017l0.003,0.002l0.991-1.08l0.007,0.004l0.169-0.187l-1.103-0.69L14.117,28.729z M14.95,29.525
		l-0.891-0.562l0.082-0.09l0.893,0.562L14.95,29.525z M17.279,22.33c-0.188,0.084-0.273,0.31-0.188,0.498
		c0.089,0.189,0.312,0.272,0.501,0.188c0.172-0.079,0.258-0.271,0.205-0.447l0.003-0.003l-0.614-1.351l0.006-0.004l-0.107-0.229
		l-1.072,0.753l0.057,0.128l0.529,1.159c-0.088-0.03-0.187-0.027-0.275,0.012c-0.188,0.088-0.272,0.312-0.188,0.5
		c0.086,0.189,0.309,0.273,0.5,0.188c0.172-0.079,0.256-0.272,0.204-0.449l0.004-0.002l-0.547-1.199l0.872-0.608l0.389,0.854
		C17.467,22.285,17.369,22.287,17.279,22.33z M16.266,22.008l-0.052-0.111l0.871-0.609l0.054,0.113L16.266,22.008z M3.695,25.863
		c-1.104-0.63-2.354-0.525-2.787,0.233c-0.245,0.431-0.186,1.002,0.161,1.544L0.301,28.09l0.181,0.07
		c0.012,0.004,1.213,0.463,2.1,0.672c1.163,0.271,2.012,0.108,2.331-0.451C5.345,27.625,4.799,26.494,3.695,25.863z M4.75,28.291
		c-0.392,0.687-1.618,0.48-2.125,0.361C1.954,28.496,1.1,28.19,0.73,28.055l0.604-0.354l-0.058-0.084
		c-0.354-0.504-0.432-1.039-0.208-1.427c0.381-0.67,1.519-0.744,2.532-0.165C4.615,26.604,5.133,27.621,4.75,28.291z M18.42,22.983
		c0.01,0.003,0.938,0.356,1.62,0.519c0.896,0.211,1.552,0.084,1.798-0.349c0.335-0.585-0.087-1.456-0.938-1.942
		c-0.854-0.486-1.816-0.403-2.151,0.181c-0.188,0.333-0.142,0.771,0.125,1.19l-0.59,0.351L18.42,22.983z M19.077,22.627
		l-0.044-0.062c-0.271-0.391-0.331-0.803-0.161-1.104c0.296-0.517,1.172-0.572,1.955-0.127c0.782,0.448,1.181,1.231,0.887,1.75
		c-0.302,0.527-1.248,0.369-1.644,0.275c-0.516-0.119-1.176-0.354-1.459-0.46L19.077,22.627z M7.057,27.066
		c-0.516-0.2-1.322,0.768-1.506,1.237c-0.149,0.386-0.051,0.815,0.241,1.083l-0.056,0.145c-0.021,0.051-0.015,0.085,0.001,0.112
		l-0.034,0.093l0.624,0.163l0.024-0.073l0.03-0.005l0.071-0.188c0.388-0.014,0.737-0.266,0.882-0.637
		C7.521,28.523,7.573,27.266,7.057,27.066z M6.065,29.625l-0.022-0.004l0.252-1.422c0.039,0.031,0.098,0.069,0.17,0.098
		c0.031,0.014,0.062,0.021,0.092,0.027c0.117,0.025,0.224,0.049,0.281,0.061l-0.689,1.268L6.065,29.625z M7.211,28.947
		c-0.13,0.336-0.453,0.559-0.803,0.551H6.361l-0.074,0.197c-0.016-0.005-0.033-0.011-0.067-0.021l-0.004-0.002l0.725-1.332
		l-0.045-0.01c0,0-0.147-0.033-0.325-0.072c-0.025-0.006-0.053-0.012-0.08-0.022c-0.118-0.045-0.193-0.12-0.193-0.121l-0.048-0.05
		l-0.273,1.539L5.9,29.582c-0.012-0.004-0.021-0.006-0.03-0.012l0.086-0.221l-0.04-0.033c-0.278-0.23-0.373-0.617-0.24-0.963
		c0.182-0.471,0.929-1.316,1.332-1.161C7.412,27.347,7.393,28.479,7.211,28.947z M5.683,29.785l0.626,0.166l-0.015,0.035
		c-0.019,0.051-0.027,0.064-0.032,0.074l-0.011,0.025l-0.03-0.002l-0.577-0.151l0.002-0.029c0-0.016,0.006-0.053,0.021-0.073
		L5.683,29.785z M5.624,29.981l0.607,0.161L6.2,30.183c-0.05,0.063-0.146,0.121-0.336,0.049H5.86
		c-0.11-0.044-0.183-0.106-0.214-0.188L5.624,29.981z M11.195,22.184c0,0.572,0.469,1.044,1.045,1.044
		c0.122,0,0.239-0.022,0.351-0.063l0.141,0.168l0.134-0.11l0.695,0.829l0.325-0.272l-0.695-0.829l0.107-0.09l-0.145-0.172
		c0.083-0.148,0.131-0.32,0.131-0.502c0-0.575-0.47-1.043-1.044-1.043C11.663,21.141,11.195,21.608,11.195,22.184z M12.847,22.184
		c0,0.335-0.271,0.605-0.606,0.605c-0.335,0-0.607-0.271-0.607-0.605c0-0.334,0.271-0.607,0.607-0.607
		C12.575,21.576,12.847,21.85,12.847,22.184z M10.151,26.062c0-0.679-0.549-1.229-1.227-1.229c-0.677,0-1.229,0.551-1.229,1.229
		c0,0.676,0.553,1.228,1.229,1.228C9.603,27.289,10.151,26.737,10.151,26.062z M9.797,25.377c0.124,0.158,0.207,0.352,0.229,0.56
		c-0.164,0.026-0.665,0.083-0.907-0.153C9.42,25.559,9.696,25.424,9.797,25.377z M9.736,25.307
		c-0.118,0.059-0.387,0.191-0.674,0.406c-0.175-0.27,0.086-0.61,0.176-0.717C9.433,25.055,9.604,25.164,9.736,25.307z M8.925,24.953
		c0.075,0,0.146,0.006,0.218,0.021c-0.12,0.146-0.353,0.498-0.15,0.793c-0.069,0.054-0.139,0.112-0.208,0.174
		c-0.018,0.017-0.033,0.032-0.051,0.047c-0.273-0.34-0.441-0.678-0.496-0.794C8.427,25.041,8.664,24.953,8.925,24.953z
		 M7.815,26.062c0-0.32,0.136-0.604,0.352-0.81c0.066,0.142,0.235,0.468,0.503,0.795c-0.064,0.062-0.126,0.123-0.185,0.182
		c-0.229-0.242-0.526-0.188-0.669-0.141C7.816,26.082,7.815,26.071,7.815,26.062z M8.036,26.724
		c-0.115-0.156-0.192-0.343-0.215-0.543c0.109-0.041,0.389-0.109,0.602,0.11C8.238,26.482,8.104,26.64,8.036,26.724z M8.583,27.116
		c-0.191-0.062-0.359-0.176-0.488-0.323c0.06-0.071,0.196-0.233,0.385-0.431C8.659,26.621,8.613,26.971,8.583,27.116z M8.925,27.17
		c-0.088,0-0.173-0.014-0.254-0.029c0.034-0.157,0.087-0.549-0.128-0.844c0.057-0.059,0.119-0.116,0.183-0.181
		c0.023,0.026,0.049,0.058,0.073,0.083c0.337,0.372,0.658,0.647,0.784,0.754C9.398,27.088,9.172,27.17,8.925,27.17z M8.863,26.14
		c-0.023-0.028-0.049-0.058-0.071-0.084c0.018-0.017,0.034-0.033,0.054-0.05c0.067-0.062,0.136-0.116,0.203-0.172
		c0.169,0.177,0.439,0.217,0.666,0.217c0.133,0,0.25-0.016,0.318-0.025c0.001,0.012,0.002,0.021,0.002,0.036
		c0,0.333-0.148,0.631-0.382,0.834C9.541,26.802,9.212,26.522,8.863,26.14z M6.037,23.705c-0.066-0.16-0.162-0.302-0.277-0.418
		l3.199,1.291l5.307-8.583l7.36,5.36l7.595-16.341l1.432,0.569l-0.851-4.687l-3.848,2.812l1.507,0.604l-6.582,14.16l-7.149-5.207
		l-5.541,8.959L0.71,19.209L0,20.963L4.804,22.9c-0.153,0.004-0.309,0.032-0.458,0.094c-0.141,0.055-0.225,0.107-0.344,0.211
		c-0.223,0.193,0.454,0.465,0.252,0.782c-0.205,0.318-0.723-0.235-0.717,0.273c0.032,0.221,0.037,0.284,0.095,0.424
		c0.27,0.664,1.027,0.981,1.691,0.713C5.987,25.127,6.306,24.369,6.037,23.705z M4.195,24.977c-0.115,0.048-0.257-0.023-0.312-0.161
		c-0.057-0.137-0.007-0.287,0.109-0.334c0.115-0.049,0.257,0.022,0.312,0.162C4.362,24.782,4.313,24.931,4.195,24.977z
		 M5.605,23.619c0.118-0.05,0.257,0.024,0.313,0.161c0.055,0.136,0.006,0.287-0.11,0.335c-0.117,0.047-0.258-0.025-0.312-0.162
		C5.439,23.814,5.488,23.666,5.605,23.619z M4.536,23.072c0.114-0.047,0.256,0.025,0.312,0.162c0.056,0.139,0.006,0.287-0.11,0.334
		c-0.118,0.048-0.258-0.025-0.313-0.161C4.369,23.269,4.419,23.121,4.536,23.072z M4.759,25.328
		c-0.115,0.047-0.256-0.024-0.313-0.162c-0.055-0.139-0.005-0.289,0.111-0.336c0.116-0.048,0.258,0.026,0.313,0.162
		C4.925,25.129,4.877,25.279,4.759,25.328z M5.14,23.164c0.118-0.047,0.258,0.025,0.313,0.164c0.055,0.137,0.006,0.286-0.111,0.332
		C5.226,23.709,5.086,23.64,5.03,23.5C4.975,23.361,5.024,23.211,5.14,23.164z M5.345,25.246c-0.116,0.049-0.258-0.023-0.312-0.162
		c-0.059-0.138-0.008-0.289,0.108-0.334c0.117-0.047,0.258,0.025,0.313,0.162C5.51,25.049,5.462,25.198,5.345,25.246z M5.45,24.625
		c-0.058-0.139-0.008-0.287,0.109-0.334c0.117-0.049,0.257,0.025,0.313,0.16c0.057,0.137,0.007,0.287-0.11,0.336
		C5.645,24.834,5.506,24.762,5.45,24.625z M29.162,9.504c-0.338,0.002-0.592,0.104-0.602,0.108l-0.031,0.013l0.004,0.199
		c-0.104,0.021-0.17,0.057-0.166,0.111C28.369,10.229,28.383,12,28.383,12l1.521-0.012c0.052,0.046,0.13,0.073,0.216,0.073
		c0.086-0.002,0.164-0.031,0.215-0.077l1.481-0.013c0,0-0.017-1.961-0.018-2.064c-0.001-0.047-0.053-0.074-0.138-0.093V9.601
		L31.63,9.587c-0.01-0.004-0.267-0.102-0.604-0.1c-0.362,0.004-0.674,0.116-0.928,0.338C29.839,9.609,29.525,9.502,29.162,9.504z
		 M29.1,11.615c-0.173,0-0.326,0.029-0.455,0.083l-0.016-2.005c0.074-0.027,0.28-0.088,0.535-0.089
		c0.333-0.004,0.622,0.096,0.857,0.291l0.012,1.194l0.056-0.063l0.007,0.799C29.971,11.772,29.533,11.61,29.1,11.615z M30.171,9.894
		c0.231-0.199,0.521-0.302,0.853-0.306c0.256-0.002,0.463,0.058,0.539,0.079l0.018,2.007c-0.141-0.056-0.301-0.082-0.477-0.082
		c-0.438,0.007-0.85,0.177-0.975,0.23l-0.006-0.797l0.059,0.062L30.171,9.894z M30.091,13.958l-1.354,3.4l-0.234-0.091l0.062-0.153
		l-0.545-0.217l-0.035,0.084l-0.459-0.184l0.156-0.391l0.461,0.183l-0.052,0.125l0.544,0.218l0.102-0.251l-0.769-0.306l0.095-1.255
		l0.821-1.047l0.767,0.305l0.207-0.515L30.091,13.958z M13.554,27.582l0.119,0.152c0.043,0.057,0.085,0.074,0.124,0.072l0.077,0.099
		l0.584-0.573l-0.063-0.076l0.015-0.033l-0.158-0.2c0.236-0.431,0.189-0.978-0.122-1.376c-0.396-0.507-1.733-1.38-2.286-0.948
		c-0.552,0.435-0.023,1.938,0.373,2.445C12.538,27.554,13.069,27.727,13.554,27.582z M13.991,27.441l-0.021,0.021l-1.384-1.197
		c0.056-0.021,0.137-0.061,0.214-0.122c0.034-0.026,0.062-0.054,0.091-0.081c0.104-0.113,0.197-0.212,0.248-0.268l0.932,1.57
		L13.991,27.441z M11.95,24.834c0.433-0.34,1.649,0.416,2.044,0.918c0.28,0.357,0.313,0.854,0.081,1.23l-0.031,0.05l0.164,0.212
		c-0.014,0.012-0.031,0.028-0.068,0.06l-0.003,0.004l-0.982-1.655l-0.037,0.042c0,0-0.134,0.142-0.288,0.31
		c-0.024,0.023-0.052,0.049-0.079,0.074c-0.127,0.096-0.258,0.129-0.26,0.131l-0.081,0.02l1.499,1.298l-0.074,0.068
		c-0.014,0.012-0.023,0.02-0.034,0.026l-0.187-0.238l-0.058,0.021c-0.431,0.151-0.915,0.006-1.206-0.365
		C11.958,26.535,11.517,25.172,11.95,24.834z M14.612,27.535l-0.022,0.033l-0.541,0.529l-0.029-0.021
		c-0.018-0.013-0.053-0.041-0.066-0.07l-0.037-0.047l0.585-0.574l0.03,0.039c0.043,0.055,0.054,0.072,0.059,0.082L14.612,27.535z
		 M14.174,28.168l-0.081-0.016l0.569-0.561l0.021,0.062c0.038,0.093,0.04,0.238-0.163,0.396l-0.004,0.006
		C14.396,28.147,14.28,28.186,14.174,28.168z M27.061,14.255l0.023-0.18l0.104,0.016l0.232,0.029l0.107,0.016l0.101-1.499
		l-0.092-0.012l-0.138,1.286l-0.166-0.021l0.315-2.412c0.046-0.002,0.083-0.032,0.089-0.074c0.004-0.041-0.021-0.079-0.068-0.092
		l0.002-0.003l-0.34-0.045l-0.179-0.022l-0.021-0.003l-0.004,0.003c-0.039,0.007-0.073,0.034-0.078,0.073
		c-0.006,0.04,0.021,0.075,0.06,0.089l-0.343,2.618l0.105,0.016l-0.021,0.179L27.061,14.255z M26.771,13.944l0.33-2.523l0.355,0.047
		l-0.33,2.521L26.771,13.944z M27.205,12.898l-0.116,0.884l-0.172-0.021l0.116-0.884L27.205,12.898z M27.448,9.872l-0.046,0.217
		l-0.051-0.006l-0.045,0.142l-0.041-0.011l-0.227,0.949l0.539,0.07l0.013-0.956l-0.024-0.006l-0.02-0.163l-0.045-0.004V9.879
		L27.448,9.872z M27.49,11.127l-0.338-0.042l0.185-0.765l0.163,0.032L27.49,11.127z M26.218,15.48l-0.581,0.916l-0.117-0.077
		l-0.121,0.188c-0.166-0.033-0.344-0.026-0.519,0.028c-0.549,0.174-0.854,0.761-0.68,1.31c0.173,0.548,0.762,0.854,1.31,0.681
		c0.549-0.173,0.854-0.762,0.68-1.31c-0.037-0.117-0.094-0.226-0.164-0.315l0.117-0.187l-0.146-0.094l0.58-0.913L26.218,15.48z
		 M25.378,18.11c-0.319,0.103-0.661-0.077-0.763-0.396c-0.104-0.317,0.076-0.66,0.396-0.762c0.318-0.102,0.66,0.074,0.762,0.396
		C25.875,17.668,25.698,18.008,25.378,18.11z M30.797,17.979c-0.154-0.289,0.482-0.444,0.098-0.653
		c-0.183-0.068-0.23-0.094-0.358-0.109c-0.613-0.076-1.177,0.359-1.257,0.973c-0.075,0.616,0.359,1.176,0.976,1.255
		c0.614,0.078,1.175-0.356,1.255-0.971c0.016-0.13,0.012-0.218-0.016-0.351C31.438,17.873,30.948,18.268,30.797,17.979z
		 M29.384,18.269c0.013-0.106,0.13-0.185,0.257-0.166c0.127,0.015,0.219,0.114,0.205,0.226c-0.013,0.107-0.129,0.184-0.254,0.166
		C29.463,18.476,29.371,18.377,29.384,18.269z M29.759,19.004c-0.127-0.018-0.218-0.117-0.207-0.227
		c0.017-0.107,0.13-0.186,0.257-0.166c0.127,0.016,0.219,0.117,0.205,0.227C30,18.944,29.887,19.02,29.759,19.004z M29.775,18.019
		c-0.127-0.017-0.219-0.116-0.205-0.226c0.015-0.106,0.131-0.184,0.258-0.166c0.127,0.016,0.219,0.114,0.205,0.225
		C30.018,17.959,29.904,18.035,29.775,18.019z M30.246,19.324c-0.128-0.018-0.221-0.119-0.205-0.227
		c0.014-0.108,0.126-0.186,0.253-0.167c0.128,0.016,0.22,0.116,0.206,0.225S30.373,19.338,30.246,19.324z M30.279,17.741
		c-0.129-0.016-0.221-0.116-0.205-0.227c0.015-0.104,0.129-0.183,0.255-0.166c0.127,0.017,0.22,0.116,0.205,0.228
		C30.52,17.683,30.404,17.758,30.279,17.741z M30.784,19.164c-0.13-0.017-0.22-0.117-0.204-0.227
		c0.016-0.105,0.128-0.184,0.253-0.166c0.128,0.018,0.219,0.117,0.205,0.227C31.023,19.104,30.91,19.18,30.784,19.164z
		 M31.111,18.746c-0.129-0.015-0.221-0.115-0.204-0.225c0.013-0.107,0.127-0.182,0.255-0.165c0.125,0.015,0.218,0.115,0.201,0.224
		C31.352,18.688,31.236,18.762,31.111,18.746z"/>
</g>
<g>
</g>
<g>
</g>
<g>
</g>
<g>
</g>
<g>
</g>
<g>
</g>
<g>
</g>
<g>
</g>
<g>
</g>
<g>
</g>
<g>
</g>
<g>
</g>
<g>
</g>
<g>
</g>
<g>
</g>
</svg>
