<?xml version="1.0" encoding="utf-8"?>
<!-- Generator: Adobe Illustrator 19.2.1, SVG Export Plug-In . SVG Version: 6.00 Build 0)  -->
<svg version="1.1" id="Layer_1" xmlns="http://www.w3.org/2000/svg" xmlns:xlink="http://www.w3.org/1999/xlink" x="0px" y="0px"
	 viewBox="0 0 33 33" style="enable-background:new 0 0 33 33;" xml:space="preserve">
<style type="text/css">
	.st0{fill:#FFFFFF;}
</style>
<path class="st0" d="M1.2,16.5H0.5c0,8.8,7.2,16,16,16s16-7.2,16-16s-7.2-16-16-16s-16,7.2-16,16H1.2h0.7c0-4,1.6-7.7,4.3-10.3
	s6.3-4.3,10.3-4.3s7.7,1.6,10.3,4.3c2.7,2.6,4.3,6.3,4.3,10.3s-1.6,7.7-4.3,10.3s-6.3,4.3-10.3,4.3s-7.7-1.6-10.3-4.3
	c-2.7-2.6-4.3-6.3-4.3-10.3H1.2L1.2,16.5z"/>
<g>
	<path class="st0" d="M9.5,13.5l-3.7-1l-0.3,1.3l3.7,1C9.2,14.3,9.4,13.9,9.5,13.5L9.5,13.5z"/>
	<path class="st0" d="M11.7,10.3L9,7.6L8.1,8.5l2.7,2.7C11.1,10.9,11.4,10.6,11.7,10.3L11.7,10.3z"/>
	<path class="st0" d="M23.8,14.7l3.7-1l-0.3-1.3l-3.7,1C23.6,13.9,23.8,14.3,23.8,14.7L23.8,14.7z"/>
	<path class="st0" d="M22.2,11.2l2.7-2.7L24,7.6l-2.7,2.7C21.6,10.6,21.9,10.9,22.2,11.2L22.2,11.2z"/>
	<path class="st0" d="M9.2,17.3l-3.7,1l0.3,1.3l3.7-1C9.4,18.2,9.2,17.7,9.2,17.3L9.2,17.3z"/>
	<path class="st0" d="M23.5,18.6l3.7,1l0.3-1.3l-3.7-1C23.8,17.7,23.6,18.2,23.5,18.6L23.5,18.6z"/>
	<path class="st0" d="M22.9,24.1l-1.7-3.8v-4.8c0-2.4-1.8-4.4-4.1-4.7V8.6c-0.2,0-0.4,0-0.7,0c-0.2,0-0.4,0-0.7,0v2.2
		c-2.3,0.3-4.1,2.3-4.1,4.7v4.8l-1.7,3.8H15c0,0.7,0.6,1.3,1.3,1.3c0.7,0,1.3-0.6,1.3-1.3L22.9,24.1L22.9,24.1z M13.1,20.5v-5
		c0-1.9,1.5-3.4,3.4-3.4s3.4,1.5,3.4,3.4v5l1,2.3h-8.8L13.1,20.5L13.1,20.5z"/>
</g>
</svg>
