<?xml version="1.0" encoding="utf-8"?>
<!-- Generator: Adobe Illustrator 19.2.1, SVG Export Plug-In . SVG Version: 6.00 Build 0)  -->
<svg version="1.1" id="Layer_1" xmlns="http://www.w3.org/2000/svg" xmlns:xlink="http://www.w3.org/1999/xlink" x="0px" y="0px"
	 viewBox="0 0 33 33" style="enable-background:new 0 0 33 33;" xml:space="preserve">
<style type="text/css">
	.st0{fill:#FFFFFF;}
</style>
<g>
	<g>
		<path class="st0" d="M11.8,15.3h6.4c0.3,0,0.6-0.3,0.6-0.6s-0.3-0.6-0.6-0.6h-6.4c-0.3,0-0.6,0.3-0.6,0.6S11.5,15.3,11.8,15.3z"/>
		<path class="st0" d="M11.8,17.4h4.4c0.3,0,0.6-0.3,0.6-0.6s-0.3-0.6-0.6-0.6h-4.4c-0.3,0-0.6,0.3-0.6,0.6S11.5,17.4,11.8,17.4z"/>
		<path class="st0" d="M15.8,18.9c0-0.3-0.3-0.6-0.6-0.6h-3.4c-0.3,0-0.6,0.3-0.6,0.6s0.3,0.6,0.6,0.6h3.4
			C15.5,19.5,15.8,19.2,15.8,18.9z"/>
		<path class="st0" d="M27.7,12.9L26,11.1c-0.4-0.4-0.8-0.6-1.4-0.6c0,0,0,0,0,0c-0.5,0-1,0.2-1.4,0.5l-0.1,0.1c0-0.1,0-0.1,0-0.2
			V8.5c0-0.9-0.8-1.7-1.7-1.7h-8.6c0,0,0,0-0.1,0c0,0-0.1,0-0.1,0c-0.1,0-0.2,0.1-0.3,0.1c0,0,0,0,0,0l0,0c0,0,0,0,0,0l-4.2,4.2
			c0,0,0,0,0,0c0,0,0,0,0,0c0,0-0.1,0.1-0.1,0.1c0,0,0,0.1,0,0.1c0,0,0,0.1,0,0.1c0,0,0,0.1,0,0.1v11.9c0,0.9,0.8,1.7,1.7,1.7h11.7
			c0.5,0,0.9-0.2,1.3-0.5c0.3-0.3,0.5-0.7,0.5-1.1v-2.1c0-0.3-0.3-0.6-0.6-0.6c-0.2,0-0.3,0.1-0.4,0.2l5.6-5.4
			C28.5,14.9,28.5,13.7,27.7,12.9z M18.5,21.4l-1.2-1.2l0.5-1.7l2.3,2.4L18.5,21.4z M16.8,21.5l0.3,0.3l-0.4,0.1L16.8,21.5z
			 M21.2,20.3l-2.8-2.8l5.6-5.5c0.3-0.3,0.7-0.3,1,0l1.8,1.8c0.3,0.3,0.3,0.7,0,1L21.2,20.3z M12.2,9v1.7c0,0.2-0.2,0.4-0.5,0.4H10
			L12.2,9z M21.9,21.6v2.1c0,0.2-0.2,0.4-0.5,0.4H9.6c-0.3,0-0.5-0.2-0.5-0.4V12.4h2.5c1,0,1.7-0.7,1.8-1.7V8.1h8
			c0.3,0,0.5,0.2,0.5,0.4V11c0,0.3,0.3,0.6,0.6,0.6c0.1,0,0.1,0,0.2,0L17.1,17c0,0-0.1,0.1-0.1,0.1c-0.1,0.1-0.1,0.2-0.2,0.3
			l-1.6,5.2c-0.1,0.2,0,0.5,0.1,0.6c0.1,0.1,0.3,0.2,0.5,0.2c0,0,0.1,0,0.2-0.1l5.2-1.5c0.2,0,0.3-0.1,0.3-0.3c0,0,0,0,0,0l0.4-0.4
			C21.9,21.3,21.9,21.4,21.9,21.6z"/>
	</g>
	<path class="st0" d="M1.2,16.5H0.5c0,8.8,7.2,16,16,16c8.8,0,16-7.2,16-16s-7.2-16-16-16c-8.8,0-16,7.2-16,16H1.2h0.7
		c0-4,1.6-7.7,4.3-10.3c2.7-2.6,6.3-4.3,10.3-4.3c4,0,7.7,1.6,10.3,4.3c2.7,2.6,4.3,6.3,4.3,10.3s-1.6,7.7-4.3,10.3
		s-6.3,4.3-10.3,4.3c-4,0-7.7-1.6-10.3-4.3c-2.7-2.6-4.3-6.3-4.3-10.3H1.2L1.2,16.5z"/>
</g>
</svg>
