<?xml version="1.0" encoding="utf-8"?>
<!-- Generator: Adobe Illustrator 19.2.1, SVG Export Plug-In . SVG Version: 6.00 Build 0)  -->
<svg version="1.1" id="Layer_1" xmlns="http://www.w3.org/2000/svg" xmlns:xlink="http://www.w3.org/1999/xlink" x="0px" y="0px"
	 viewBox="0 0 33 33" style="enable-background:new 0 0 33 33;" xml:space="preserve">
<style type="text/css">
	.st0{fill:#FFFFFF;}
</style>
<g>
	<path class="st0" d="M21.1,13.5c-0.3-0.3-0.9-0.3-1.3,0c-0.4,0.4-0.4,0.9,0,1.3c0.5,0.5,0.7,1.1,0.7,1.8c0,0.7-0.3,1.3-0.7,1.8
		c-0.4,0.4-0.4,0.9,0,1.3c0.1,0.2,0.4,0.3,0.6,0.3c0.3,0,0.5-0.1,0.7-0.3c0.8-0.8,1.3-1.9,1.3-3C22.4,15.3,21.9,14.3,21.1,13.5z"/>
	<path class="st0" d="M23.8,21.1c0.4-0.5,0.6-1,0.8-1.4c0.5-1,0.7-2.1,0.7-3.2c0-1.1-0.2-2.2-0.7-3.2c-0.2-0.4-0.5-0.9-0.8-1.4
		c-0.3-0.4-0.7-0.7-1.1-1c-0.3-0.2-0.7-0.1-0.9,0.1c-0.2,0.3-0.3,0.6-0.1,0.9c0.2,0.3,0.5,0.7,0.7,1.1c0.2,0.3,0.4,0.6,0.6,1
		c0.3,0.8,0.5,1.6,0.5,2.4c0,0.9-0.2,1.7-0.5,2.4c-0.1,0.3-0.3,0.6-0.6,1c-0.3,0.3-0.5,0.7-0.7,1L21.7,21c-0.2,0.3-0.1,0.7,0.1,0.9
		c0.2,0.1,0.3,0.2,0.4,0.2c0,0,0.1,0,0.1,0c0.1,0,0.2,0,0.4-0.1c0,0,0.1-0.1,0.1-0.1c0,0,0.1-0.1,0.1-0.1
		C23.3,21.7,23.6,21.4,23.8,21.1L23.8,21.1z"/>
	<path class="st0" d="M27.5,12.3c-0.3-0.6-0.6-1.3-1-1.9c-0.4-0.6-0.9-1.2-1.4-1.7c-0.3-0.3-0.9-0.3-1.3,0c-0.4,0.4-0.4,0.9,0,1.3
		c0.9,0.9,1.6,1.9,2,3c0.5,1.1,0.7,2.3,0.7,3.6c0,1.2-0.2,2.4-0.7,3.6c-0.5,1.1-1.1,2.1-2,3c-0.4,0.4-0.4,0.9,0,1.3
		c0.2,0.2,0.4,0.3,0.6,0.3c0.3,0,0.5-0.1,0.6-0.3c0.5-0.5,1-1.1,1.4-1.7c0.4-0.6,0.7-1.3,1-1.9c0.6-1.3,0.8-2.8,0.8-4.2
		C28.4,15,28.1,13.6,27.5,12.3z"/>
	<path class="st0" d="M13.4,14.1c0-0.2-0.1-0.5-0.3-0.6c-0.3-0.3-0.8-0.4-1.3,0c-0.8,0.8-1.3,1.9-1.3,3c0,1.2,0.4,2.2,1.3,3
		c0.2,0.2,0.4,0.3,0.6,0.3c0.2,0,0.5-0.1,0.6-0.3c0.2-0.2,0.3-0.4,0.3-0.6c0-0.2-0.1-0.5-0.3-0.6c-0.5-0.5-0.7-1.1-0.7-1.8
		c0-0.7,0.3-1.3,0.7-1.8C13.3,14.6,13.4,14.3,13.4,14.1z"/>
	<path class="st0" d="M10.6,19.9c-0.2-0.3-0.4-0.6-0.6-1c-0.3-0.8-0.5-1.6-0.5-2.4c0-0.9,0.2-1.7,0.5-2.4c0.1-0.3,0.3-0.6,0.6-1
		c0.2-0.3,0.5-0.7,0.7-1l0.1-0.1c0.2-0.3,0.1-0.7-0.1-0.9c-0.1-0.1-0.3-0.2-0.4-0.2c-0.2,0-0.3,0-0.5,0.1c0,0-0.1,0.1-0.1,0.1
		c0,0-0.1,0.1-0.1,0.1c-0.3,0.2-0.6,0.5-0.8,0.8l0,0c-0.4,0.5-0.6,0.9-0.8,1.4c-0.5,1-0.7,2.1-0.7,3.2c0,1.1,0.2,2.2,0.7,3.2
		c0.2,0.4,0.5,0.9,0.8,1.4c0.3,0.4,0.7,0.7,1.1,1c0.1,0.1,0.2,0.1,0.4,0.1c0.2,0,0.4-0.1,0.5-0.2c0.2-0.3,0.3-0.6,0.1-0.9
		C11.1,20.7,10.9,20.3,10.6,19.9z"/>
	<path class="st0" d="M7.2,20.1c-0.5-1.1-0.7-2.3-0.7-3.6c0-1.2,0.2-2.4,0.7-3.6c0.5-1.1,1.1-2.1,2-3c0.2-0.2,0.3-0.4,0.3-0.6
		S9.3,8.8,9.2,8.7C9,8.5,8.8,8.4,8.5,8.4c-0.2,0-0.5,0.1-0.6,0.3c-0.5,0.5-1,1.1-1.4,1.7c-0.4,0.6-0.7,1.3-1,1.9
		c-0.6,1.3-0.8,2.8-0.8,4.2s0.3,2.9,0.8,4.2c0.3,0.6,0.6,1.3,1,1.9c0.4,0.6,0.9,1.2,1.4,1.7c0.2,0.2,0.4,0.3,0.6,0.3
		s0.5-0.1,0.6-0.3c0.2-0.2,0.3-0.4,0.3-0.6c0-0.2-0.1-0.5-0.3-0.6C8.3,22.2,7.6,21.2,7.2,20.1z"/>
	<circle class="st0" cx="16.5" cy="16.5" r="2.4"/>
</g>
<g>
	<path class="st0" d="M1.2,16.5H0.5c0,8.8,7.2,16,16,16s16-7.2,16-16s-7.2-16-16-16s-16,7.2-16,16H1.2h0.7c0-4,1.6-7.7,4.3-10.3
		s6.3-4.3,10.3-4.3s7.7,1.6,10.3,4.3c2.7,2.6,4.3,6.3,4.3,10.3s-1.6,7.7-4.3,10.3s-6.3,4.3-10.3,4.3s-7.7-1.6-10.3-4.3
		c-2.7-2.6-4.3-6.3-4.3-10.3H1.2L1.2,16.5z"/>
</g>
</svg>
