<?xml version="1.0" encoding="utf-8"?>
<!-- Generator: Adobe Illustrator 19.2.1, SVG Export Plug-In . SVG Version: 6.00 Build 0)  -->
<svg version="1.1" id="Layer_1" xmlns="http://www.w3.org/2000/svg" xmlns:xlink="http://www.w3.org/1999/xlink" x="0px" y="0px"
	 viewBox="0 0 33 33" style="enable-background:new 0 0 33 33;" xml:space="preserve">
<style type="text/css">
	.st0{fill:#FFFFFF;}
</style>
<g>
	<path class="st0" d="M16.5,5.9c-0.2,0-0.4,0.1-0.6,0.2l-8.7,8.6c-0.3,0.3-0.3,0.9,0,1.2c0.2,0.2,0.4,0.3,0.6,0.3s0.4-0.1,0.6-0.3
		l8-8l8,8c0.2,0.2,0.3,0.2,0.6,0.2c0.2,0,0.4-0.1,0.6-0.2c0.3-0.3,0.3-0.9,0-1.2l-8.6-8.6C17,6,16.8,5.9,16.5,5.9"/>
	<path class="st0" d="M22.5,15.3c-0.5,0-0.9,0.4-0.9,0.9v7.4h-2.2v-5.2c0-0.5-0.4-0.9-0.9-0.9h-4c-0.5,0-0.9,0.4-0.9,0.9v5.2h-2.2
		v-7.4c0-0.5-0.4-0.9-0.9-0.9s-0.9,0.4-0.9,0.9v8.2c0,0.5,0.4,0.9,0.9,0.9h3.9c0.5,0,0.8-0.4,0.8-0.9v-5.2h2.4v5.2
		c0,0.5,0.4,0.9,0.9,0.9h3.9c0.5,0,0.8-0.4,0.8-0.9v-8.2C23.3,15.7,23,15.3,22.5,15.3"/>
</g>
<g>
	<path class="st0" d="M1.2,16.5H0.5c0,8.8,7.2,16,16,16s16-7.2,16-16s-7.2-16-16-16s-16,7.2-16,16H1.2h0.7c0-4,1.6-7.7,4.3-10.3
		s6.3-4.3,10.3-4.3s7.7,1.6,10.3,4.3c2.7,2.6,4.3,6.3,4.3,10.3s-1.6,7.7-4.3,10.3s-6.3,4.3-10.3,4.3s-7.7-1.6-10.3-4.3
		c-2.7-2.6-4.3-6.3-4.3-10.3H1.2L1.2,16.5z"/>
</g>
</svg>
