<?xml version="1.0" encoding="utf-8"?>
<!-- Generator: Adobe Illustrator 19.2.1, SVG Export Plug-In . SVG Version: 6.00 Build 0)  -->
<svg version="1.1" id="Layer_1" xmlns="http://www.w3.org/2000/svg" xmlns:xlink="http://www.w3.org/1999/xlink" x="0px" y="0px"
	 viewBox="0 0 33 33" style="enable-background:new 0 0 33 33;" xml:space="preserve">
<style type="text/css">
	.st0{fill:#FFFFFF;}
</style>
<path class="st0" d="M16.5,0.5c8.8,0,16,7.2,16,16s-7.2,16-16,16s-16-7.2-16-16C0.5,7.7,7.7,0.5,16.5,0.5L16.5,0.5z M16.5,31
	c8,0,14.5-6.5,14.5-14.5S24.5,2,16.5,2C8.5,2,2,8.5,2,16.5C2,24.5,8.5,31,16.5,31L16.5,31z"/>
<g>
	<path class="st0" d="M20.2,19.5c-0.5,0-0.9,0.4-0.9,0.9v2.8l-7.6,1.3V8.5l7.6,1.3v2c0,0.5,0.4,0.9,0.9,0.9c0.5,0,0.9-0.4,0.9-0.9
		V9.4c0-0.8-0.5-1.4-1.3-1.5l-8.3-1.4c-0.4-0.1-0.9,0-1.3,0.3C10,7.2,9.8,7.6,9.8,8v16.9c0,0.4,0.2,0.9,0.5,1.2
		c0.3,0.2,0.6,0.4,1,0.4c0,0,0,0,0,0l8.5-1.4c0.7-0.1,1.3-0.8,1.3-1.5v-3.1C21.1,19.9,20.7,19.5,20.2,19.5z"/>
	<path class="st0" d="M27.6,15.9l-3.9-3.9c-0.2-0.2-0.4-0.3-0.7-0.3c0,0,0,0,0,0c-0.2,0-0.5,0.1-0.7,0.3c-0.2,0.2-0.3,0.4-0.3,0.7
		c0,0.3,0.1,0.5,0.3,0.7l2.3,2.3h-8.8c-0.5,0-0.9,0.4-0.9,0.9s0.4,0.9,0.9,0.9h8.8l-2.3,2.3c-0.2,0.2-0.3,0.4-0.3,0.7
		c0,0.3,0.1,0.5,0.3,0.6c0.2,0.2,0.4,0.3,0.7,0.3c0.3,0,0.5-0.1,0.7-0.3l3.9-3.9c0.2-0.1,0.3-0.4,0.3-0.6
		C27.9,16.3,27.8,16,27.6,15.9z"/>
</g>
</svg>
