<?xml version="1.0" encoding="utf-8"?>
<!-- Generator: Adobe Illustrator 19.2.1, SVG Export Plug-In . SVG Version: 6.00 Build 0)  -->
<svg version="1.1" id="Layer_1" xmlns="http://www.w3.org/2000/svg" xmlns:xlink="http://www.w3.org/1999/xlink" x="0px" y="0px"
	 viewBox="0 0 33 33" style="enable-background:new 0 0 33 33;" xml:space="preserve">
<style type="text/css">
	.st0{fill:#FFFFFF;}
</style>
<path class="st0" d="M28.2,25.7l-2.5-2.5c0.8-0.9,1.2-2.1,1.2-3.3c0-1.6-0.7-3.1-2-4.1c0,0,0-0.1,0-0.1l0-0.1l0-0.1l0,0
	c0,0,0-0.1,0-0.1l0-0.1c0-0.2,0-0.3-0.1-0.5c0-0.1,0-0.2-0.1-0.3c0-0.2-0.1-0.4-0.1-0.5c0-0.1-0.1-0.2-0.1-0.3
	c-0.1-0.2-0.1-0.4-0.2-0.5c0-0.1-0.1-0.2-0.1-0.3c-0.1-0.2-0.1-0.3-0.2-0.5c0-0.1-0.1-0.2-0.1-0.3c-0.1-0.2-0.2-0.3-0.3-0.5
	c0-0.1-0.1-0.1-0.1-0.2l0-0.1c-0.1-0.1-0.2-0.3-0.3-0.4c0-0.1-0.1-0.1-0.1-0.2l0-0.1c-0.1-0.1-0.2-0.3-0.3-0.4c0,0-0.1-0.1-0.2-0.2
	c-0.1-0.1-0.3-0.3-0.4-0.4l-0.1-0.1c-0.2-0.1-0.3-0.3-0.5-0.4l-0.2,0.2c0,0,0,0,0,0l0.1-0.2c-1.6-1.2-3.4-1.8-5.3-1.8
	c-0.1,0-0.1,0-0.2,0c-4.2,0.1-7.9,3.1-8.6,7.3c0,0.1,0,0.1,0,0.2l0,0.2c0,0.1,0,0.3-0.1,0.4c0,0.3,0,0.6,0,0.8c0,0.3,0,0.6,0,0.9
	c0,0.1,0,0.2,0,0.3l0,0.2c0,0.1,0,0.2,0.1,0.3c0,0.1,0.1,0.3,0.1,0.4l0.2-0.1l-0.2,0.1c0,0.1,0.1,0.2,0.1,0.3c0,0.1,0.1,0.3,0.1,0.4
	l0,0.1c0,0.1,0,0.1,0.1,0.2l0,0.1c1.3,3.4,4.7,5.7,8.3,5.7c1.2,0,2.5-0.3,3.6-0.8c1.8,0.8,3.7,0.6,5.2-0.6l2.5,2.5
	c0.1,0.1,0.3,0.2,0.4,0.2c0.2,0,0.3-0.1,0.5-0.2C28.4,26.3,28.4,25.9,28.2,25.7z M16.5,12.9v-4c1.3,0.4,2.4,1.9,3.1,4H16.5z
	 M21.2,14.1h2.1c0.1,0.3,0.2,0.5,0.2,0.9c-0.6-0.2-1.2-0.3-1.8-0.3c-0.1,0-0.3,0-0.4,0C21.2,14.5,21.2,14.3,21.2,14.1z M25.6,19.9
	c0,2.2-1.8,4-4,4s-4-1.8-4-4s1.8-4,4-4c1.1,0,2.1,0.4,2.8,1.2C25.2,17.9,25.6,18.8,25.6,19.9z M20,9.9c0.2,0.1,0.3,0.2,0.5,0.3
	l0.1,0.1c0.1,0.1,0.2,0.2,0.4,0.3c0.1,0.1,0.1,0.1,0.2,0.2c0.1,0.1,0.2,0.2,0.2,0.2c0.1,0.1,0.2,0.2,0.3,0.3
	c0.1,0.1,0.1,0.1,0.2,0.2c0.1,0.1,0.2,0.2,0.3,0.4l0.1,0.2c0.1,0.1,0.2,0.3,0.3,0.5l0.1,0.1c0,0.1,0.1,0.1,0.1,0.2h-1.8
	c-0.3-1.3-0.8-2.4-1.5-3.3C19.6,9.7,19.8,9.8,20,9.9l0.1-0.2L20,9.9L20,9.9z M16.5,18.8v-4.6h3.4c0,0.3,0.1,0.5,0.1,0.8
	C18.3,15.5,16.9,17,16.5,18.8L16.5,18.8z M16.5,24V21c0.2,0.9,0.6,1.7,1.2,2.4C17.3,23.7,16.9,23.9,16.5,24z M15.3,20v4
	c-1.3-0.4-2.4-1.9-3.1-4H15.3z M9.1,12.9c0.7-1.4,1.9-2.5,3.3-3.2c-0.6,0.9-1.1,2-1.5,3.2H9.1z M10.9,20c0.3,1.3,0.9,2.4,1.5,3.3
	C11,22.6,9.8,21.4,9.1,20H10.9z M15.3,14.1v4.6h-3.3c-0.1-0.8-0.2-1.5-0.2-2.3c0-0.8,0.1-1.5,0.2-2.3H15.3z M15.3,8.8v4h-3.1
	C12.8,10.7,14,9.2,15.3,8.8z M10.6,18.8H8.6c-0.2-0.8-0.4-1.5-0.4-2.3c0-0.8,0.1-1.5,0.4-2.3l2.1,0c-0.1,0.7-0.2,1.5-0.2,2.3
	C10.4,17.2,10.5,18,10.6,18.8z M21.1,9.4L21.1,9.4L21.1,9.4L21.1,9.4z"/>
<g>
	<path class="st0" d="M1.2,16.5H0.5c0,8.8,7.2,16,16,16s16-7.2,16-16s-7.2-16-16-16s-16,7.2-16,16H1.2h0.7c0-4,1.6-7.7,4.3-10.3
		s6.3-4.3,10.3-4.3s7.7,1.6,10.3,4.3c2.7,2.6,4.3,6.3,4.3,10.3s-1.6,7.7-4.3,10.3s-6.3,4.3-10.3,4.3s-7.7-1.6-10.3-4.3
		c-2.7-2.6-4.3-6.3-4.3-10.3H1.2L1.2,16.5z"/>
</g>
</svg>
