<?xml version="1.0" encoding="utf-8"?>
<!-- Generator: Adobe Illustrator 19.2.1, SVG Export Plug-In . SVG Version: 6.00 Build 0)  -->
<svg version="1.1" id="Layer_1" xmlns="http://www.w3.org/2000/svg" xmlns:xlink="http://www.w3.org/1999/xlink" x="0px" y="0px"
	 viewBox="0 0 33 33" style="enable-background:new 0 0 33 33;" xml:space="preserve">
<style type="text/css">
	.st0{fill:#FFFFFF;}
</style>
<path class="st0" d="M24,18.7c-1.7-0.6-3.7-1.4-4-1.5l-0.8-0.3l-0.1,0.7c-0.1,0.9-0.5,2.2-1,3.7c0-0.5-0.1-0.9-0.1-1.3
	c0.2-0.3,0.4-0.6,0.5-0.9c0.1-0.3,0.1-0.7-0.1-1c-0.2-0.3-0.4-0.4-0.7-0.5c0.4-0.1,0.8-0.4,1-0.6c1-0.7,2-2.2,2.3-3.4
	c0.8-0.2,1-1.4,1.1-1.9c0.1-0.7,0.1-1.2-0.2-1.6c-0.1-0.2-0.3-0.3-0.5-0.4c0-0.7,0-1.2,0-1.7c-0.1-1.1-0.8-2.3-1.6-2.9
	c-1.1-0.8-2.7-1.1-3.3-1.1s-2.2,0.3-3.3,1.1c-0.8,0.6-1.5,1.8-1.6,2.9c0,0.4,0,0.9,0,1.7c-0.2,0.1-0.4,0.2-0.5,0.4
	c-0.3,0.4-0.3,0.9-0.2,1.6c0.1,0.5,0.3,1.6,1.1,1.8c0.4,1.2,1.4,2.8,2.3,3.4c0.2,0.3,0.6,0.5,1.1,0.6c-0.3,0.1-0.6,0.2-0.7,0.5
	c-0.2,0.3-0.2,0.7-0.1,1c0.1,0.3,0.3,0.6,0.5,0.9c-0.1,0.4-0.1,0.8-0.1,1.3c-0.6-1.5-0.9-2.8-1-3.7l-0.1-0.7L13,17.1l0,0
	c-0.1,0-0.2,0.1-0.5,0.2c-0.8,0.3-2.3,0.9-3.6,1.4c-2,0.7-2.7,1.8-2.7,3.7v1.2c0,1.4,1.1,2.5,2.6,2.5h15.4c1.4,0,2.6-1.1,2.6-2.5
	v-1.2C26.8,20.5,26,19.4,24,18.7z M7.4,23.6v-1.2c0-1.4,0.5-2,1.9-2.5c1.2-0.4,2.6-1,3.4-1.3c0.3,1.5,1,3.7,2,5.5l0.4,0.8H8.8
	C8,24.9,7.4,24.3,7.4,23.6z M16,23.8c0-1.4,0.1-2.6,0.3-3.8l0-0.2l-0.1-0.2c-0.2-0.3-0.3-0.5-0.4-0.7h1.5c-0.1,0.2-0.3,0.5-0.4,0.7
	l-0.1,0.2l0,0.2c0.2,1.2,0.3,2.5,0.3,3.8l0,1.1h-1.1L16,23.8z M18.2,24c1-1.9,1.7-4,2-5.5c0.2,0.1,0.4,0.2,0.7,0.3
	c0.8,0.3,1.8,0.7,2.8,1c1.5,0.5,1.9,1.2,1.9,2.5v1.2c0,0.7-0.6,1.3-1.3,1.3h-6.5L18.2,24z M12.8,10.2c0-0.9,0-1.6,0-2.1
	c0.1-0.8,0.6-1.7,1-2c0.8-0.6,2.1-0.9,2.6-0.9c0.5,0,1.8,0.3,2.6,0.9c0.4,0.3,1,1.2,1.1,2c0,0.5,0,1.2,0,2.1l-0.1,0.9l0.8-0.2
	c0,0,0,0,0,0c0,0.1,0,0.2,0,0.6c-0.1,0.6-0.2,0.8-0.3,0.9L20,12.2l-0.1,0.7c-0.1,1-1.2,2.6-2,3.1l-0.2,0.2c-0.1,0.1-0.5,0.4-1.3,0.4
	h0h0c0,0,0,0-0.1,0c-0.7,0-1.1-0.2-1.2-0.4l0-0.1l-0.1-0.1c-0.8-0.5-1.9-2.2-2-3.2L13,12.2l-0.7,0.2c-0.1-0.1-0.2-0.3-0.3-0.9
	c-0.1-0.4,0-0.5,0-0.6l0.9,0.3L12.8,10.2z"/>
<g>
	<path class="st0" d="M1.2,16.5H0.5c0,8.8,7.2,16,16,16s16-7.2,16-16s-7.2-16-16-16s-16,7.2-16,16H1.2h0.7c0-4,1.6-7.7,4.3-10.3
		s6.3-4.3,10.3-4.3s7.7,1.6,10.3,4.3c2.7,2.6,4.3,6.3,4.3,10.3s-1.6,7.7-4.3,10.3s-6.3,4.3-10.3,4.3s-7.7-1.6-10.3-4.3
		c-2.7-2.6-4.3-6.3-4.3-10.3H1.2L1.2,16.5z"/>
</g>
</svg>
