<?xml version="1.0" encoding="utf-8"?>
<!-- Generator: Adobe Illustrator 15.1.0, SVG Export Plug-In . SVG Version: 6.00 Build 0)  -->
<!DOCTYPE svg PUBLIC "-//W3C//DTD SVG 1.1//EN" "http://www.w3.org/Graphics/SVG/1.1/DTD/svg11.dtd">
<svg version="1.1" id="Capa_1" xmlns="http://www.w3.org/2000/svg" xmlns:xlink="http://www.w3.org/1999/xlink" x="0px" y="0px"
	 width="496.918px" height="496.918px" viewBox="0 0 496.918 496.918" enable-background="new 0 0 496.918 496.918"
	 xml:space="preserve">
<g>
	<g>
		<path fill="#595959" stroke="#595959" stroke-miterlimit="10" d="M288.857,0c56.158,0,101.684,45.528,101.684,101.686
			c0,56.158-45.524,101.683-101.684,101.683c-56.16,0-101.686-45.525-101.686-101.683C187.172,45.528,232.697,0,288.857,0z"/>
		<path fill="#595959" stroke="#595959" stroke-miterlimit="10" d="M222.28,431.557c10.894-4.243,25.419-14.527,25.419-14.527
			c10.29-6.655,13.313-20.581,6.658-30.866l-30.263-46.612c-6.053-9.078-18.764-15.132-30.869-6.654l-12.711,8.476
			c-8.473,4.231-18.761,1.206-24.21-6.655L121.2,280.241c-5.447-7.873-3.632-19.979,3.632-24.819l13.92-8.473
			c10.291-6.659,13.316-20.582,6.658-30.869l-30.263-46.606c-6.658-10.288-20.578-13.314-30.869-6.658
			c0,0-15.738,9.685-24.211,18.157c-35.71,33.896-18.764,82.316,30.263,157.371C138.752,414.002,178.7,450.317,222.28,431.557z"/>
		<path fill="#595959" stroke="#595959" stroke-miterlimit="10" d="M325.777,228.791h-36.316h-36.314
			c-40.551,0-76.867,18.761-101.078,47.814l20.579,32.078l1.211-0.604c9.079-6.053,18.761-9.079,29.052-9.079
			c17.552,0,34.501,9.079,44.183,24.211l30.264,46.601c15.734,24.211,9.08,56.295-15.131,72.028
			c-3.629,2.423-18.159,12.708-30.867,17.555c-10.896,4.842-22.396,6.655-33.895,6.655l0,0c-27.843,0-52.659-13.919-75.052-35.104
			v33.289c0,0,49.63,32.681,162.209,32.681h9.079c102.286,0,162.209-32.681,162.209-32.681V359.527
			C455.908,287.5,397.197,228.791,325.777,228.791z"/>
	</g>
</g>
</svg>
