<?xml version="1.0" encoding="utf-8"?>
<!-- Generator: Adobe Illustrator 19.2.1, SVG Export Plug-In . SVG Version: 6.00 Build 0)  -->
<svg version="1.1" id="Layer_1" xmlns="http://www.w3.org/2000/svg" xmlns:xlink="http://www.w3.org/1999/xlink" x="0px" y="0px"
	 viewBox="0 0 33 33" style="enable-background:new 0 0 33 33;" xml:space="preserve">
<style type="text/css">
	.st0{fill:#FFFFFF;}
</style>
<g>
	<path class="st0" d="M26.6,14l-0.2-0.2l-0.7,0.7l0.2,0.2c0.8,0.8,1.2,1.8,1.2,2.9s-0.4,2.1-1.2,2.9l-0.2,0.2l0.7,0.7l0.2-0.2
		c1-1,1.5-2.2,1.5-3.6C28.1,16.2,27.5,15,26.6,14z"/>
	<path class="st0" d="M17.7,14c-1,0.9-1.5,2.2-1.5,3.6c0,1.3,0.5,2.6,1.5,3.6l0.2,0.2l0.7-0.7l-0.2-0.2c-0.8-0.8-1.2-1.8-1.2-2.9
		c0-1.1,0.4-2.1,1.2-2.8l0.2-0.2l-0.7-0.7L17.7,14z"/>
	<path class="st0" d="M25,14.7l-0.2-0.2l-0.7,0.7l0.2,0.2c1,1,1.2,2.7,0.4,3.9L24.1,18v-1.7c0-1.1-0.9-2-2-2s-2,0.9-2,2V18l-0.6,1.3
		c-0.8-1.2-0.6-2.8,0.4-3.9l0.2-0.2l-0.7-0.7l-0.2,0.2c-0.8,0.8-1.2,1.8-1.2,2.9c0,1.1,0.4,2.1,1.2,2.9l0.2,0.2l0.7-0.7l-0.2-0.2
		c0,0-0.1-0.1-0.1-0.1h1.6c0.1,0.3,0.4,0.5,0.7,0.5c0.3,0,0.6-0.2,0.7-0.5h1.6c0,0-0.1,0.1-0.1,0.1L24.1,20l0.7,0.7l0.2-0.2
		c0.8-0.8,1.2-1.8,1.2-2.9C26.2,16.6,25.8,15.5,25,14.7z M23.3,18.7h-2.3l0.2-0.4l0-1.9c0-0.5,0.4-0.9,0.9-0.9s0.9,0.4,0.9,0.9v1.8
		L23.3,18.7z"/>
	<path class="st0" d="M15.1,13c-0.2-0.2-0.6-0.2-0.8,0L12,15.2l-0.8-0.8c-0.2-0.2-0.6-0.2-0.8,0c-0.1,0.1-0.2,0.3-0.2,0.4
		c0,0.2,0.1,0.3,0.2,0.4l1.2,1.2c0.1,0.1,0.3,0.2,0.4,0.2c0.2,0,0.3-0.1,0.4-0.2l2.7-2.7c0.1-0.1,0.2-0.3,0.2-0.4S15.2,13.1,15.1,13
		z"/>
	<path class="st0" d="M14.3,20.2L12,22.4l-0.8-0.8c-0.2-0.2-0.6-0.2-0.8,0c-0.1,0.1-0.2,0.3-0.2,0.4c0,0.2,0.1,0.3,0.2,0.4l1.2,1.2
		c0.1,0.1,0.3,0.2,0.4,0.2c0.2,0,0.3-0.1,0.4-0.2l2.7-2.7c0.1-0.1,0.2-0.3,0.2-0.4c0-0.2-0.1-0.3-0.2-0.4C15,20.1,14.9,20,14.7,20
		C14.6,20,14.4,20,14.3,20.2z"/>
	<path class="st0" d="M15.1,16.6c-0.2-0.2-0.6-0.2-0.8,0L12,18.8L11.2,18c-0.2-0.2-0.6-0.2-0.8,0c-0.1,0.1-0.2,0.3-0.2,0.4
		c0,0.2,0.1,0.3,0.2,0.4l1.2,1.2c0.1,0.1,0.3,0.2,0.4,0.2c0.2,0,0.3-0.1,0.4-0.2l2.7-2.7c0.1-0.1,0.2-0.3,0.2-0.4
		S15.2,16.7,15.1,16.6z"/>
	<path class="st0" d="M21.5,25h-12V9.9h1.9c0,0.1,0,0.2,0,0.3c0,0.8,0.7,1.5,1.5,1.5h5.6c0.8,0,1.5-0.7,1.5-1.5c0-0.1,0-0.2,0-0.3
		h1.4v4.3h1.2V9.3c0-0.3-0.3-0.6-0.6-0.6h-2.5c-0.3-0.5-0.8-0.9-1.4-1.2c-0.3-1.1-1.3-2-2.5-2c-1.2,0-2.2,0.8-2.5,2
		c-0.6,0.3-1,0.7-1.3,1.2h-3c-0.3,0-0.6,0.3-0.6,0.6v16.4c0,0.3,0.3,0.6,0.6,0.6h13.2c0.3,0,0.6-0.3,0.6-0.6v-5.4h-1.2V25z
		 M18.6,10.4h-5.6c-0.2,0-0.3-0.1-0.3-0.3c0-0.7,0.5-1.3,1.3-1.6l0.3-0.1l0-0.4c0.1-0.7,0.7-1.3,1.4-1.3c0.7,0,1.3,0.5,1.4,1.2
		l0,0.4l0.3,0.1c0.8,0.3,1.3,0.9,1.3,1.6C18.9,10.3,18.7,10.4,18.6,10.4z"/>
</g>
<path class="st0" d="M1.2,16.5H0.5c0,8.8,7.2,16,16,16c8.8,0,16-7.2,16-16s-7.2-16-16-16c-8.8,0-16,7.2-16,16H1.2h0.7
	c0-4,1.6-7.7,4.3-10.3c2.7-2.6,6.3-4.3,10.3-4.3c4,0,7.7,1.6,10.3,4.3c2.7,2.6,4.3,6.3,4.3,10.3s-1.6,7.7-4.3,10.3
	s-6.3,4.3-10.3,4.3c-4,0-7.7-1.6-10.3-4.3c-2.7-2.6-4.3-6.3-4.3-10.3H1.2L1.2,16.5z"/>
</svg>
