<?xml version="1.0" encoding="utf-8"?>
<!-- Generator: Adobe Illustrator 19.2.1, SVG Export Plug-In . SVG Version: 6.00 Build 0)  -->
<svg version="1.1" id="Layer_1" xmlns="http://www.w3.org/2000/svg" xmlns:xlink="http://www.w3.org/1999/xlink" x="0px" y="0px"
	 viewBox="0 0 33 33" style="enable-background:new 0 0 33 33;" xml:space="preserve">
<style type="text/css">
	.st0{fill:#FFFFFF;}
</style>
<g>
	<g>
		<path class="st0" d="M23.8,9.6c-1.9-1.9-4.3-2.9-7-2.9c-2.6,0-5.1,1-7,2.9c-2.4,2.4-3.4,5.9-2.6,9.2L4.2,17
			c-0.2-0.1-0.4-0.1-0.5-0.1c-0.2,0-0.4,0.2-0.5,0.3l0,0.1c-0.1,0.2-0.1,0.5,0,0.7c0.1,0.2,0.2,0.3,0.3,0.3L8.3,21
			c0.2,0.1,0.4,0.1,0.5,0.1c0.2,0,0.4-0.2,0.5-0.3l2.8-5c0.1-0.2,0.1-0.5,0-0.7c-0.1-0.2-0.2-0.3-0.3-0.3c-0.2-0.1-0.5-0.1-0.7,0
			c-0.2,0.1-0.3,0.2-0.3,0.3l-1.9,3.5c-0.7-2.9,0.1-5.9,2.2-8c1.6-1.6,3.6-2.4,5.8-2.4c2.2,0,4.3,0.9,5.8,2.4
			c1.6,1.6,2.4,3.6,2.4,5.8s-0.9,4.3-2.4,5.8c-1.6,1.6-3.6,2.4-5.8,2.4s-4.3-0.9-5.8-2.4c-0.3-0.3-0.8-0.3-1.1,0
			c-0.1,0.1-0.3,0.3-0.3,0.6c0,0.2,0.1,0.4,0.3,0.6c1.9,1.9,4.3,2.9,7,2.9c2.6,0,5.2-1,7-2.9c1.9-1.9,2.9-4.3,2.9-7
			C26.6,13.8,25.6,11.4,23.8,9.6z"/>
		<path class="st0" d="M17.4,9.7c-0.2-0.4-0.5-0.8-0.9-0.8c-0.4,0-0.8,0.3-0.8,0.8v5.6c-0.6,0.3-0.9,0.8-0.9,1.6
			c0,1,0.8,1.8,1.8,1.8c0.6,0,1.2-0.3,1.5-0.9h3.2c0.4,0,0.8-0.3,0.8-0.8s-0.3-0.8-0.8-0.8h-3.2c-0.2-0.3-0.4-0.6-0.7-0.7V9.8
			L17.4,9.7z M16.6,16.8c0,0.1-0.1,0.1-0.2,0.1c-0.1,0-0.1-0.1-0.1-0.1c0-0.1,0.1-0.2,0.1-0.2C16.6,16.6,16.6,16.6,16.6,16.8z"/>
	</g>
	<path class="st0" d="M1.2,16.5H0.5c0,8.8,7.2,16,16,16c8.8,0,16-7.2,16-16s-7.2-16-16-16c-8.8,0-16,7.2-16,16H1.2h0.7
		c0-4,1.6-7.7,4.3-10.3c2.7-2.6,6.3-4.3,10.3-4.3c4,0,7.7,1.6,10.3,4.3c2.7,2.6,4.3,6.3,4.3,10.3s-1.6,7.7-4.3,10.3
		s-6.3,4.3-10.3,4.3c-4,0-7.7-1.6-10.3-4.3c-2.7-2.6-4.3-6.3-4.3-10.3H1.2L1.2,16.5z"/>
</g>
</svg>
