<?xml version="1.0" encoding="utf-8"?>
<!-- Generator: Adobe Illustrator 19.2.1, SVG Export Plug-In . SVG Version: 6.00 Build 0)  -->
<svg version="1.1" id="Layer_1" xmlns="http://www.w3.org/2000/svg" xmlns:xlink="http://www.w3.org/1999/xlink" x="0px" y="0px"
	 viewBox="0 0 33 33" style="enable-background:new 0 0 33 33;" xml:space="preserve">
<style type="text/css">
	.st0{fill:#FFFFFF;}
</style>
<g>
	<g>
		<path class="st0" d="M17.4,23.6l-0.1-0.1v-5.9l4.9-2.9l0.1,0.1c0.4,0.3,0.8,0.4,1.2,0.4c1.2,0,2.1-1,2.1-2.2s-1-2.2-2.1-2.2
			s-2.1,1-2.1,2.2l0,0.3l-5,3l-4.9-2.9l0-0.1c0-0.1,0-0.2,0-0.3c0-1.2-1-2.2-2.1-2.2s-2.1,1-2.1,2.2s1,2.2,2.1,2.2
			c0.4,0,0.8-0.1,1.2-0.4l0.1-0.1l4.9,2.9v5.9l-0.1,0.1c-0.7,0.4-1.2,1.2-1.2,2c0,1.2,1,2.2,2.1,2.2c1.2,0,2.1-1,2.1-2.2
			C18.6,24.8,18.2,24,17.4,23.6z"/>
		<path class="st0" d="M23.5,17.1c-2.3,0-4.1,1.9-4.1,4.3s1.8,4.3,4.1,4.3c2.3,0,4.1-1.9,4.1-4.3C27.6,19.1,25.8,17.1,23.5,17.1z
			 M26.1,21.4c0,1.5-1.1,2.7-2.6,2.7s-2.6-1.2-2.6-2.7s1.1-2.7,2.6-2.7S26.1,19.9,26.1,21.4z"/>
		<path class="st0" d="M9.5,17.1c-2.3,0-4.1,1.9-4.1,4.3s1.8,4.3,4.1,4.3c2.3,0,4.1-1.9,4.1-4.3S11.8,17.1,9.5,17.1z M12.1,21.4
			c0,1.5-1.1,2.7-2.6,2.7s-2.6-1.2-2.6-2.7s1.1-2.7,2.6-2.7S12.1,19.9,12.1,21.4z"/>
		<path class="st0" d="M16.5,13.1c2.3,0,4.1-1.9,4.1-4.3c0-2.4-1.8-4.3-4.1-4.3c-2.3,0-4.1,1.9-4.1,4.3
			C12.4,11.2,14.2,13.1,16.5,13.1z M13.9,8.8c0-1.5,1.1-2.7,2.6-2.7c0.7,0,1.3,0.3,1.8,0.8c0.5,0.5,0.8,1.2,0.8,1.9
			c0,1.5-1.1,2.7-2.6,2.7S13.9,10.3,13.9,8.8z"/>
	</g>
	<g>
		<path class="st0" d="M1.2,16.5H0.5c0,8.8,7.2,16,16,16s16-7.2,16-16s-7.2-16-16-16s-16,7.2-16,16H1.2h0.7c0-4,1.6-7.7,4.3-10.3
			s6.3-4.3,10.3-4.3s7.7,1.6,10.3,4.3c2.7,2.6,4.3,6.3,4.3,10.3s-1.6,7.7-4.3,10.3s-6.3,4.3-10.3,4.3s-7.7-1.6-10.3-4.3
			c-2.7-2.6-4.3-6.3-4.3-10.3H1.2L1.2,16.5z"/>
	</g>
</g>
</svg>
