<?xml version="1.0" encoding="utf-8"?>
<!-- Generator: Adobe Illustrator 19.2.1, SVG Export Plug-In . SVG Version: 6.00 Build 0)  -->
<svg version="1.1" id="Layer_1" xmlns="http://www.w3.org/2000/svg" xmlns:xlink="http://www.w3.org/1999/xlink" x="0px" y="0px"
	 viewBox="0 0 33 33" style="enable-background:new 0 0 33 33;" xml:space="preserve">
<style type="text/css">
	.st0{fill:#FFFFFF;}
</style>
<g>
	<g>
		<path class="st0" d="M9.1,12.9h14.7c0.6,0,1.1-0.5,1.1-1.1h0c0-0.6-0.5-1.1-1.1-1.1H9.1c-0.6,0-1.1,0.5-1.1,1.1S8.5,12.9,9.1,12.9
			z"/>
		<path class="st0" d="M23.9,15.4H9.1c-0.6,0-1.1,0.5-1.1,1.1s0.5,1.1,1.1,1.1h14.7c0.6,0,1.1-0.5,1.1-1.1h0
			C25,15.9,24.5,15.4,23.9,15.4z"/>
		<path class="st0" d="M23.9,20.1H9.1c-0.6,0-1.1,0.5-1.1,1.1s0.5,1.1,1.1,1.1h14.7c0.6,0,1.1-0.5,1.1-1.1h0
			C25,20.6,24.5,20.1,23.9,20.1z"/>
	</g>
	<g>
		<path class="st0" d="M1.2,16.5H0.5c0,8.8,7.2,16,16,16s16-7.2,16-16s-7.2-16-16-16s-16,7.2-16,16H1.2h0.7c0-4,1.6-7.7,4.3-10.3
			s6.3-4.3,10.3-4.3s7.7,1.6,10.3,4.3c2.7,2.6,4.3,6.3,4.3,10.3s-1.6,7.7-4.3,10.3s-6.3,4.3-10.3,4.3s-7.7-1.6-10.3-4.3
			c-2.7-2.6-4.3-6.3-4.3-10.3H1.2L1.2,16.5z"/>
	</g>
</g>
</svg>
