<?xml version="1.0" encoding="utf-8"?>
<!-- Generator: Adobe Illustrator 19.2.1, SVG Export Plug-In . SVG Version: 6.00 Build 0)  -->
<svg version="1.1" id="Layer_1" xmlns="http://www.w3.org/2000/svg" xmlns:xlink="http://www.w3.org/1999/xlink" x="0px" y="0px"
	 viewBox="0 0 33 33" style="enable-background:new 0 0 33 33;" xml:space="preserve">
<style type="text/css">
	.st0{fill:#FFFFFF;}
</style>
<path class="st0" d="M22.2,15l-7.8-7.1h0c-0.2-0.2-0.4-0.3-0.7-0.3c-0.3,0-0.6,0.1-0.8,0.3c-0.2,0.2-0.3,0.5-0.3,0.7
	c0,0.3,0.1,0.6,0.4,0.8l7.7,7L13,23.6c-0.2,0.2-0.3,0.5-0.3,0.8c0,0.3,0.1,0.5,0.3,0.7c0.2,0.2,0.5,0.3,0.8,0.3
	c0.3,0,0.5-0.1,0.7-0.3l7.8-7.1h0c0.4-0.4,0.6-0.9,0.6-1.5S22.7,15.4,22.2,15z"/>
<g>
	<path class="st0" d="M1.2,16.5H0.5c0,8.8,7.2,16,16,16s16-7.2,16-16s-7.2-16-16-16s-16,7.2-16,16H1.2h0.7c0-4,1.6-7.7,4.3-10.3
		s6.3-4.3,10.3-4.3s7.7,1.6,10.3,4.3c2.7,2.6,4.3,6.3,4.3,10.3s-1.6,7.7-4.3,10.3s-6.3,4.3-10.3,4.3s-7.7-1.6-10.3-4.3
		c-2.7-2.6-4.3-6.3-4.3-10.3H1.2L1.2,16.5z"/>
</g>
</svg>
