<?xml version="1.0" encoding="utf-8"?>
<!-- Generator: Adobe Illustrator 19.2.1, SVG Export Plug-In . SVG Version: 6.00 Build 0)  -->
<svg version="1.1" id="Layer_1" xmlns="http://www.w3.org/2000/svg" xmlns:xlink="http://www.w3.org/1999/xlink" x="0px" y="0px"
	 viewBox="0 0 33 33" style="enable-background:new 0 0 33 33;" xml:space="preserve">
<style type="text/css">
	.st0{fill:#FFFFFF;}
</style>
<g>
	<g>
		<path class="st0" d="M16.7,13.1L16.7,13.1c0-0.2,0-0.4,0-0.6c0-0.3-0.1-0.6-0.3-0.9c-0.3-0.5-0.7-1-1.3-1.3
			c-0.2-0.1-0.5-0.3-0.8-0.4h-0.1c-0.1,0-0.2,0-0.2-0.1c0.3-0.4,0.5-0.9,0.5-1.5c0-0.7-0.3-1.4-0.8-1.9s-1.2-0.8-1.9-0.8
			s-1.3,0.3-1.9,0.8C9.5,7,9.2,7.7,9.2,8.4c0,0.5,0.2,1,0.5,1.5l0,0c-0.1,0-0.2,0-0.3,0.1c-0.3,0.1-0.6,0.2-0.8,0.4
			c-0.6,0.3-1,0.8-1.3,1.3C7.1,11.9,7,12.2,7,12.5c0,0.2,0,0.4,0,0.6v4.3c0,0.2,0,0.3,0.1,0.5c0.1,0.6,0.5,1.1,1,1.6
			c0.2,0.2,0.5,0.3,0.7,0.5c0,0,0.1,0,0.2,0.1v5.8c0,0.2,0.1,0.5,0.2,0.7c0.1,0.2,0.3,0.4,0.5,0.5c0.1,0.1,0.3,0.1,0.4,0.1
			c0.1,0,0.2,0,0.3,0h3c0.1,0,0.2,0,0.3,0s0.3-0.1,0.3-0.1c0.2-0.1,0.4-0.3,0.5-0.5s0.2-0.5,0.2-0.7v-5.8c0.1,0,0.2-0.1,0.3-0.1
			c0.3-0.1,0.5-0.3,0.7-0.5c0.5-0.4,0.9-1,1-1.6c0-0.1,0-0.3,0.1-0.5v-4.1L16.7,13.1L16.7,13.1z M12,20.3h-0.4
			c-0.3,0-0.5,0.2-0.5,0.5V26h-0.8l0,0l0,0v-6.2c0-0.1,0-0.3-0.1-0.4C10.1,19.1,10,19,9.8,19l-0.2-0.1c-0.1,0-0.2-0.1-0.3-0.1
			c-0.2-0.1-0.4-0.2-0.5-0.3c-0.3-0.3-0.5-0.6-0.6-0.8c0-0.1,0-0.2,0-0.2v-4.3c0-0.1,0-0.3,0-0.4c0-0.1,0.1-0.3,0.2-0.4
			c0.2-0.3,0.4-0.6,0.8-0.8c0.2-0.1,0.3-0.2,0.5-0.2l0,0l1.4,2v1.4c0,0.3,0.2,0.5,0.5,0.5H12c0.3,0,0.5-0.2,0.5-0.5v-1.4l1.4-2l0,0
			c0.2,0.1,0.4,0.1,0.6,0.2c0.3,0.2,0.6,0.5,0.8,0.8c0.1,0.1,0.1,0.3,0.2,0.5c0,0.1,0,0.3,0,0.4v4.3c0,0.1,0,0.2,0,0.2
			c-0.1,0.3-0.3,0.6-0.6,0.8c-0.2,0.1-0.3,0.2-0.5,0.3c-0.1,0-0.2,0.1-0.3,0.1h-0.2c-0.1,0-0.3,0.1-0.4,0.3
			c-0.1,0.1-0.1,0.2-0.1,0.4V26h-0.8v-5.2C12.5,20.5,12.3,20.3,12,20.3z M11.8,11L11.8,11c0.2,0,0.4,0,0.6-0.1l-0.6,0.9l-0.6-0.9
			C11.4,11,11.6,11,11.8,11z M12.7,9.3c-0.5,0.5-1.4,0.5-1.8,0c-0.2-0.2-0.4-0.6-0.4-0.9c0-0.4,0.1-0.7,0.4-0.9
			c0.2-0.2,0.6-0.4,0.9-0.4c0.4,0,0.7,0.1,0.9,0.4l0,0c0.2,0.2,0.4,0.6,0.4,0.9C13.1,8.7,13,9.1,12.7,9.3z"/>
		<path class="st0" d="M26.1,10.4h-0.4c-0.3,0-0.5,0.2-0.5,0.5v3.7c0,0.1,0,0.2-0.1,0.3s-0.2,0.1-0.3,0.2c0,0-0.1,0-0.2,0h-5.3
			c-0.1,0-0.1,0-0.2,0s-0.2-0.1-0.3-0.2c-0.1-0.1-0.1-0.2-0.1-0.3V9.1V9c0-0.1,0.1-0.2,0.2-0.2c0,0,0.1,0,0.1-0.1c0.1,0,0.1,0,0.2,0
			h3.7c0.3,0,0.5-0.2,0.5-0.5V7.8c0-0.3-0.2-0.5-0.5-0.5h-3.7c-0.1,0-0.3,0-0.5,0s-0.4,0.1-0.6,0.2c-0.3,0.2-0.6,0.5-0.7,0.9
			c-0.1,0.2-0.1,0.4-0.1,0.6v5.6c0,0.4,0.2,0.8,0.4,1.1c0.3,0.3,0.6,0.5,1,0.6c0.2,0,0.3,0,0.4,0h5.4c0.1,0,0.3,0,0.4,0
			c0.4-0.1,0.8-0.3,1-0.6c0.3-0.3,0.4-0.7,0.4-1.1v-3.7C26.5,10.7,26.3,10.4,26.1,10.4z"/>
		<path class="st0" d="M20.3,10.8c-0.1-0.1-0.2-0.2-0.3-0.2c-0.1,0-0.3,0-0.3,0.1l-0.3,0.2c-0.1,0.1-0.2,0.2-0.2,0.3s0,0.2,0.1,0.4
			l2.2,3c0.1,0.1,0.2,0.2,0.4,0.2c0.1,0,0.3-0.1,0.4-0.2l3.8-6.2c0.1-0.1,0.1-0.2,0-0.3c0-0.1-0.1-0.2-0.2-0.3l-0.3-0.2
			c-0.1-0.1-0.2-0.1-0.3-0.1c-0.1,0-0.2,0.1-0.3,0.2l-3.1,5.1L20.3,10.8z"/>
		<path class="st0" d="M26.1,20.5h-0.4c-0.3,0-0.5,0.2-0.5,0.5v3.7c0,0.1,0,0.2-0.1,0.3c-0.1,0.1-0.2,0.1-0.3,0.2c0,0-0.1,0-0.2,0
			h-5.3c-0.1,0-0.1,0-0.2,0s-0.2-0.1-0.3-0.2c-0.1-0.1-0.1-0.2-0.1-0.3v-5.6V19c0-0.1,0.1-0.2,0.2-0.2c0,0,0.1,0,0.1-0.1
			c0.1,0,0.1,0,0.2,0h3.7c0.3,0,0.5-0.2,0.5-0.5v-0.4c0-0.3-0.2-0.5-0.5-0.5h-3.7c-0.1,0-0.3,0-0.5,0s-0.4,0.1-0.6,0.2
			c-0.3,0.2-0.6,0.5-0.7,0.9c-0.1,0.2-0.1,0.4-0.1,0.6v5.6c0,0.4,0.2,0.8,0.4,1.1c0.3,0.3,0.6,0.5,1,0.6c0.2,0,0.3,0,0.4,0h5.4
			c0.1,0,0.3,0,0.4,0c0.4-0.1,0.7-0.3,1-0.6c0.3-0.3,0.4-0.7,0.4-1.1v-3.7C26.5,20.7,26.3,20.5,26.1,20.5z"/>
		<path class="st0" d="M20.3,20.8c-0.1-0.1-0.2-0.2-0.3-0.2c-0.1,0-0.3,0-0.3,0.1l-0.3,0.2c-0.1,0.1-0.2,0.2-0.2,0.3
			c0,0.1,0,0.2,0.1,0.4l2.2,3c0.1,0.1,0.2,0.2,0.4,0.2c0.1,0,0.3-0.1,0.4-0.2l3.8-6.2c0.1-0.1,0.1-0.2,0-0.4c0-0.1-0.1-0.2-0.2-0.2
			l-0.3-0.2c-0.1-0.1-0.2-0.1-0.3-0.1c-0.1,0-0.2,0.1-0.3,0.2l-3.2,5.1L20.3,20.8z"/>
	</g>
	<g>
		<path class="st0" d="M1.2,16.5H0.5c0,8.8,7.2,16,16,16s16-7.2,16-16s-7.2-16-16-16s-16,7.2-16,16H1.2h0.7c0-4,1.6-7.7,4.3-10.3
			s6.3-4.3,10.3-4.3s7.7,1.6,10.3,4.3c2.7,2.6,4.3,6.3,4.3,10.3s-1.6,7.7-4.3,10.3s-6.3,4.3-10.3,4.3s-7.7-1.6-10.3-4.3
			c-2.7-2.6-4.3-6.3-4.3-10.3H1.2L1.2,16.5z"/>
	</g>
</g>
</svg>
