<?xml version="1.0" encoding="utf-8"?>
<!-- Generator: Adobe Illustrator 15.1.0, SVG Export Plug-In . SVG Version: 6.00 Build 0)  -->
<!DOCTYPE svg PUBLIC "-//W3C//DTD SVG 1.1//EN" "http://www.w3.org/Graphics/SVG/1.1/DTD/svg11.dtd">
<svg version="1.1" id="Capa_1" xmlns="http://www.w3.org/2000/svg" xmlns:xlink="http://www.w3.org/1999/xlink" x="0px" y="0px"
	 width="568.066px" height="568.066px" viewBox="0 0 568.066 568.066" enable-background="new 0 0 568.066 568.066"
	 xml:space="preserve">
<g>
	<g>
		<path fill="#595959" d="M328.234,293.221H239.82c-73.55,0-133.406,59.853-133.406,133.417v108.156l0.271,1.684l7.46,2.33
			c70.196,21.93,131.195,29.258,181.401,29.258c98.047,0,154.885-27.965,158.408-29.736l6.963-3.535h0.732V426.638
			C461.652,353.067,401.81,293.221,328.234,293.221z M304.625,503.101l-19.076,27.922c-0.26,0.391-0.67,0.609-1.125,0.609
			c-0.013,0-0.024,0-0.036,0c-0.449,0-0.877-0.236-1.125-0.633l-17.724-27.945c-0.151-0.236-0.225-0.521-0.21-0.816l8.866-135.604
			c0.047-0.723,0.635-1.266,1.363-1.266h18.396c0.721,0,1.312,0.543,1.371,1.266l9.526,135.592
			C304.886,502.556,304.792,502.841,304.625,503.101z M295.998,361.277h-21.871l-19.009-39.294c0-3.771,3.05-6.81,6.821-6.81h45.654
			c3.76,0,6.811,3.037,6.811,6.81L295.998,361.277z"/>
		<path fill="#595959" d="M179.841,181.915c0,57.551,46.648,104.213,104.207,104.213c57.534,0,104.192-46.663,104.192-104.213
			c0-4.303-0.309-8.52-0.838-12.684H180.68C180.142,173.395,179.841,177.612,179.841,181.915z"/>
		<path fill="#595959" d="M157.22,155.412h15.161h10.982h201.342h20.699h5.449c12.502,0,22.645-10.143,22.645-22.65V121.44
			c0-12.507-10.143-22.65-22.645-22.65h-22.49V77.593C388.365,34.74,353.626,0,310.773,0h-61.111
			c-42.85,0-77.593,34.74-77.593,77.593v21.196h-14.842c-12.504,0-22.647,10.143-22.647,22.65v11.322
			C134.573,145.269,144.716,155.412,157.22,155.412z"/>
	</g>
</g>
</svg>
