<?xml version="1.0" encoding="utf-8"?>
<!-- Generator: Adobe Illustrator 19.2.1, SVG Export Plug-In . SVG Version: 6.00 Build 0)  -->
<svg version="1.1" id="Layer_1" xmlns="http://www.w3.org/2000/svg" xmlns:xlink="http://www.w3.org/1999/xlink" x="0px" y="0px"
	 viewBox="0 0 33 33" style="enable-background:new 0 0 33 33;" xml:space="preserve">
<g>
	<path d="M16.5,13c0.4,0,0.8-0.4,0.8-0.8V5.7c0-0.5-0.4-0.8-0.8-0.8s-0.8,0.4-0.8,0.8v6.5C15.7,12.6,16.1,13,16.5,13z"/>
	<path d="M19.5,7.7l-0.2,0c-0.4,0-0.7,0.2-0.8,0.6l0,0.2c0,0.4,0.2,0.7,0.5,0.8c3.1,1.1,5.1,4,5.1,7.3c0,4.2-3.4,7.7-7.6,7.7
		c-4.2,0-7.6-3.4-7.6-7.7c0-3.3,2-6.2,5.1-7.3c0.3-0.1,0.5-0.4,0.5-0.8l0-0.2c-0.1-0.3-0.4-0.6-0.8-0.6c0,0,0,0,0,0l-0.2,0
		C9.8,9,7.3,12.5,7.3,16.5c0,2.5,1,4.8,2.7,6.6c1.7,1.8,4.1,2.7,6.5,2.7c2.4,0,4.8-1,6.5-2.7c1.7-1.8,2.7-4.1,2.7-6.6
		C25.7,12.5,23.2,9,19.5,7.7z"/>
</g>
<g>
	<path d="M1.2,16.5H0.5c0,8.8,7.2,16,16,16s16-7.2,16-16s-7.2-16-16-16s-16,7.2-16,16H1.2h0.7c0-4,1.6-7.7,4.3-10.3
		s6.3-4.3,10.3-4.3s7.7,1.6,10.3,4.3c2.7,2.6,4.3,6.3,4.3,10.3s-1.6,7.7-4.3,10.3s-6.3,4.3-10.3,4.3s-7.7-1.6-10.3-4.3
		c-2.7-2.6-4.3-6.3-4.3-10.3H1.2L1.2,16.5z"/>
</g>
</svg>
