<?xml version="1.0" encoding="utf-8"?>
<!-- Generator: Adobe Illustrator 19.2.1, SVG Export Plug-In . SVG Version: 6.00 Build 0)  -->
<svg version="1.1" id="Layer_1" xmlns="http://www.w3.org/2000/svg" xmlns:xlink="http://www.w3.org/1999/xlink" x="0px" y="0px"
	 viewBox="0 0 200 200" style="enable-background:new 0 0 200 200;" xml:space="preserve">
<path d="M10.8,100H6.8c0,51.5,41.7,93.2,93.2,93.2c51.5,0,93.2-41.7,93.2-93.2S151.5,6.8,100,6.8C48.5,6.8,6.8,48.5,6.8,100H10.8
	h4.1c0-23.5,9.5-44.8,25-60.2C55.3,24.4,76.5,14.9,100,14.9c23.5,0,44.7,9.5,60.1,24.9c15.5,15.4,25,36.7,25,60.2s-9.5,44.8-25,60.2
	c-15.4,15.4-36.6,24.9-60.1,24.9c-23.5,0-44.7-9.5-60.1-24.9c-15.5-15.4-25-36.7-25-60.2H10.8L10.8,100z"/>
<path d="M141.3,119.3c-9.4-3.4-21.1-8-22.4-8.5l-4.1-1.6l-0.7,4.3c-0.7,4.6-2.5,11.7-5.3,19.3c-0.2-2-0.5-4-0.7-5.9
	c1.1-1.7,2-3.4,2.7-4.9c0.8-1.9,0.6-4-0.6-5.8c-0.7-1.2-1.9-2.1-3.2-2.5c2.1-0.7,3.9-1.9,5.1-3.3c5.2-3.7,10.8-12,12.7-18.8
	c4.5-1.4,5.7-7.7,6.2-10.5c0.7-3.8,0.4-6.7-1.1-8.7c-0.7-1.1-1.7-1.8-2.9-2.3c0.2-3.7,0.1-6.7-0.1-9c-0.6-6.1-4.3-12.8-8.7-15.9
	c-6-4.2-14.8-6-18.2-6c-3.4,0-12.2,1.7-18.2,6c-4.5,3.1-8.1,9.8-8.7,15.9c-0.2,2.3-0.2,5.3-0.2,9c-1.1,0.4-2.2,1.2-2.9,2.3
	c-1.4,2-1.8,5-1.1,8.8c0.6,2.8,1.8,9.2,6.2,10.5c1.9,6.8,7.6,15.2,12.7,18.8c1.2,1.4,3,2.5,5.2,3.3c-1.4,0.4-2.5,1.3-3.3,2.5
	c-1.1,1.7-1.3,3.9-0.5,5.8c0.6,1.5,1.5,3.2,2.7,4.9c-0.3,1.9-0.6,3.9-0.7,5.9c-2.8-7.6-4.6-14.7-5.4-19.3l-0.6-4.3l-4.1,1.6
	c-1.3,0.5-13,5.1-22.3,8.5c-10.8,3.9-15.2,9.9-15.2,20.4v6.7c0,7.7,6.3,13.9,14.2,13.9h39.1l0.2,0.4v-0.4h6v0.4l0.2-0.4h39
	c7.9,0,14.3-6.2,14.3-13.9v-6.7C156.5,129.2,152.1,123.3,141.3,119.3L141.3,119.3z M50.6,146.5v-6.7c0-7.6,2.4-10.9,10.5-13.8
	c6.6-2.4,14.2-5.3,18.6-7c1.8,8.2,5.5,19.8,11,30.1l2.3,4.4H57.7C53.8,153.4,50.6,150.3,50.6,146.5L50.6,146.5z M97.3,147.4
	c0.2-7.4,0.8-14.4,1.8-20.8l0.2-1.4l-0.7-1.1c-0.9-1.3-1.6-2.5-2.2-3.6h7.4c-0.6,1.1-1.3,2.4-2.2,3.6l-0.8,1.1l0.2,1.3
	c1,6.5,1.5,13.5,1.7,20.8l0.2,6h-5.7L97.3,147.4L97.3,147.4z M109.3,149c5.4-10.3,9.2-21.9,11-30.1c4.5,1.7,12,4.7,18.6,7
	c8.1,3,10.5,6.2,10.5,13.8v6.7c0,3.8-3.2,6.9-7.2,6.9h-35.3L109.3,149L109.3,149z M80.2,73.2c-0.2-4.9-0.3-8.7,0-11.4
	c0.4-4.4,3.2-9.1,5.7-10.8c4.4-3.1,11.5-4.7,14.1-4.7s9.8,1.6,14.2,4.7c2.4,1.7,5.3,6.5,5.7,10.8c0.2,2.7,0.2,6.5,0,11.4l-0.3,5
	l4.7-1.4c0.1,0.5,0.2,1.4-0.2,3c-0.6,3-1.1,4.3-1.5,4.9l-3.6-1.1l-0.5,4.2c-0.6,5.2-6.2,14.2-11,17.4l-0.6,0.7
	c-0.4,0.5-2.7,2-6.8,1.9l0,0h-0.1c-3.9,0.2-6.3-1.4-6.9-2.2l-0.7-0.6c-4.5-3-10.1-12-10.7-17.2L81,83.5l-3.6,1.2
	c-0.3-0.6-0.9-1.9-1.5-4.9c-0.3-1.6-0.3-2.5-0.2-3l4.7,1.4L80.2,73.2L80.2,73.2z"/>
</svg>
